<?xml version="1.0" encoding="UTF-8"?>
<svg viewBox="0 0 41 41" xmlns="http://www.w3.org/2000/svg">
<path d="m34.575 0.64258h-28.399c-3.2444 0-5.8838 2.6324-5.8838 5.868v28.323c0 3.2357 2.6394 5.8681 5.8838 5.8681h28.399c3.2444 0 5.8838-2.6324 5.8838-5.8681v-28.323c0-3.2357-2.6394-5.868-5.8838-5.868zm3.5303 34.191c0 1.9414-1.5837 3.5208-3.5303 3.5208h-28.399c-1.9466 0-3.5303-1.5794-3.5303-3.5208v-28.323c0-1.9413 1.5837-3.5208 3.5303-3.5208h28.399c1.9466 0 3.5303 1.5795 3.5303 3.5208v28.323z" fill="#070707" stroke="#070707" stroke-width=".5"/>
<mask id="a" fill="white">
<path d="m31.42 29.679h-4.3115v-0.1986c0-2.3345-3e-4 -4.669 3e-4 -7.0032 0-0.4969-0.0369-0.9876-0.1617-1.4722-0.5154-1.9986-2.7412-1.8818-3.6267-0.9346-0.445 0.476-0.7358 1.014-0.748 1.6788-0.0028 0.1582-0.012 0.3167-0.012 0.4748-1e-3 2.4161-6e-4 4.8324-6e-4 7.2484v0.2054h-4.3038v-13.365h4.3016v1.7929c0.0114 0.0049 0.0227 0.0101 0.0344 0.015 0.0308-0.0417 0.0621-0.0828 0.0925-0.1248 0.4312-0.5989 0.9267-1.1298 1.585-1.4888 0.7352-0.4012 1.5294-0.5358 2.3558-0.5119 0.895 0.0261 1.7442 0.2275 2.5095 0.709 0.9811 0.6174 1.5789 1.5207 1.929 2.6043 0.2729 0.8444 0.3623 1.7156 0.3632 2.5978 0.0022 2.5386 1e-3 5.0775 7e-4 7.6162 0 0.0496-0.0047 0.0993-0.0077 0.1566z"/>
</mask>
<path d="m31.42 29.679h-4.3115v-0.1986c0-2.3345-3e-4 -4.669 3e-4 -7.0032 0-0.4969-0.0369-0.9876-0.1617-1.4722-0.5154-1.9986-2.7412-1.8818-3.6267-0.9346-0.445 0.476-0.7358 1.014-0.748 1.6788-0.0028 0.1582-0.012 0.3167-0.012 0.4748-1e-3 2.4161-6e-4 4.8324-6e-4 7.2484v0.2054h-4.3038v-13.365h4.3016v1.7929c0.0114 0.0049 0.0227 0.0101 0.0344 0.015 0.0308-0.0417 0.0621-0.0828 0.0925-0.1248 0.4312-0.5989 0.9267-1.1298 1.585-1.4888 0.7352-0.4012 1.5294-0.5358 2.3558-0.5119 0.895 0.0261 1.7442 0.2275 2.5095 0.709 0.9811 0.6174 1.5789 1.5207 1.929 2.6043 0.2729 0.8444 0.3623 1.7156 0.3632 2.5978 0.0022 2.5386 1e-3 5.0775 7e-4 7.6162 0 0.0496-0.0047 0.0993-0.0077 0.1566z" fill="#070707"/>
<path d="m31.42 29.679v0.0306h0.029l0.0015-0.0289-0.0305-0.0017zm-4.3115 0h-0.0306v0.0306h0.0306v-0.0306zm3e-4 -7.2018h0.0306-0.0306zm-0.1617-1.4722 0.0297-0.0076v-1e-4l-0.0297 0.0077zm-3.6267-0.9346 0.0224 0.0209-0.0224-0.0209zm-0.748 1.6788-0.0306-5e-4 0.0306 5e-4zm-0.012 0.4748h0.0306-0.0306zm-6e-4 7.4538v0.0306h0.0306v-0.0306h-0.0306zm-4.3038 0h-0.0306v0.0306h0.0306v-0.0306zm0-13.365v-0.0306h-0.0306v0.0306h0.0306zm4.3016 0h0.0306v-0.0306h-0.0306v0.0306zm0 1.7929h-0.0306v0.0201l0.0185 8e-3 0.0121-0.0281zm0.0344 0.015-0.0118 0.0282 0.0222 0.0093 0.0143-0.0193-0.0247-0.0182zm0.0925-0.1248 0.0248 0.018 1e-4 -1e-4 -0.0249-0.0179zm1.585-1.4888 0.0147 0.0269-0.0147-0.0269zm2.3558-0.5119 9e-4 -0.0305-9e-4 0.0305zm2.5095 0.709 0.0163-0.0259-0.0163 0.0259zm1.929 2.6043-0.0292 0.0094 0.0292-0.0094zm0.3632 2.5978 0.0307-1e-4 -0.0307 1e-4zm7e-4 7.6162h-0.0306 0.0306zm-0.0077 0.126h-0.0084-0.0085-0.0084-0.0084-0.0084-0.0084-0.0084-0.0085-0.0084-0.0084-0.0084-0.0084-0.0084-0.0084-0.0085-0.0084-0.0084-0.0084-0.0084-0.0084-0.0084-0.0085-0.0084-0.0084-0.0084-0.0084-0.0084-0.0084-0.0084-0.0084-0.0085-0.0084-0.0084-0.0084-0.0084-0.0084-0.0084-0.0084-0.0084-0.0084-0.0085-0.0084-0.0084-0.0084-0.0084-0.0084-0.0084-0.0084-0.0084-0.0084-0.0084-0.0084-0.0084-0.0085-0.0084-0.0084-0.0084-0.0084-0.0084-0.0084-0.0084-0.0084-0.0084-0.0084-0.0084-0.0084-0.0084-0.0084-0.0084-0.0084-0.0085-0.0084-0.0084-0.0084-0.0084-0.0084-0.0084-0.0084-0.0084-0.0084-0.0084-0.0084-0.0084-0.0084-0.0084-0.0084-0.0084-0.0084-0.0084-0.0084-0.0084-0.0084-0.0084-0.0084-0.0084-0.0084-0.0084-0.0084-0.0084-0.0084-0.0084-0.0084-0.0084-0.0084-0.0084-0.0084-0.0084-0.0084-0.0084-0.0084-0.0084-0.0084-0.0084-0.0084-0.0084-0.0084-0.0084-0.0084-0.0084-0.0084-0.0084-0.0084-0.0084-0.0084-0.0084-0.0084-0.0084-0.0084-0.0084-0.0084-0.0084-0.0084-0.0084-0.0084-0.0084-0.0084-0.0084-0.0084-0.0084-0.0084-0.0084-0.0084-0.0084-0.0084-0.0084-0.0084-0.0084-0.0084-0.0084-0.0084-0.0084-0.0084-0.0084-0.0084-0.0084-0.0084-0.0084-0.0084-0.0084-0.0084-0.0084-0.0084-0.0084-0.0084-0.0084-0.0084-0.0084-0.0084-0.0084-0.0084-0.0084-0.0084-0.0084-0.0084-0.0084-0.0084-0.0084-0.0084-0.0084-0.0084-0.0084-0.0084-0.0084-0.0084-0.0084-0.0084-0.0084-0.0084-0.0084-0.0084-0.0084-0.0084-0.0084-0.0084-0.0084-0.0084-0.0084-0.0084-0.0084-0.0084-0.0084-0.0084-0.0084-0.0084-0.0084-0.0084-0.0084-0.0084-0.0084-0.0084-0.0084-0.0084-0.0084-0.0084-0.0084-0.0084-0.0084-0.0084-0.0084-0.0084-0.0084-0.0084-0.0084-0.0084-0.0084-0.0084-0.0084-0.0084-0.0084-0.0084-0.0084-0.0084-0.0084-0.0084-0.0084-0.0084-0.0084-0.0084-0.0084-0.0084-0.0084-0.0084-0.0084-0.0084-0.0084-0.0084-0.0084-0.0084-0.0084-0.0084-0.0084-0.0084-0.0085-0.0084-0.0084-0.0084-0.0084-0.0084-0.0084-0.0084-0.0084-0.0084-0.0084-0.0084-0.0084-0.0084-0.0084-0.0084-0.0084-0.0085-0.0084-0.0084-0.0084-0.0084-0.0084-0.0084-0.0084-0.0084-0.0084-0.0084-0.0084-0.0085-0.0084-0.0084-0.0084-0.0084-0.0084-0.0084-0.0084-0.0084-0.0084-0.0085-0.0084-0.0084-0.0084-0.0084-0.0084-0.0084-0.0084-0.0084-0.0085-0.0084-0.0084-0.0084-0.0084-0.0084-0.0084-0.0085-0.0084-0.0084-0.0084-0.0084-0.0084-0.0084-0.0085-0.0084-0.0084-0.0084-0.0084-0.0084-0.0085-0.0084-0.0084-0.0084-0.0084-0.0084-0.0085-0.0084-0.0084-0.0084-0.0084-0.0085-0.0084-0.0084-0.0084-0.0084-0.0085-0.0084-0.0084-0.0084-0.0084-0.0085-0.0084-0.0084-0.0084-0.0085-0.0084-0.0084-0.0084-0.0085-0.0084-0.0084-0.0084-0.0085-0.0084-0.0084-0.0084-0.0085-0.0084-0.0084-0.0084-0.0085-0.0084-0.0084-0.0085-0.0084-0.0084-0.0084-0.0085-0.0084-0.0084-0.0085-0.0084-0.0084-0.0085-0.0084-0.0084-0.0084-0.0085-0.0084-0.0084-0.0085-0.0084-0.0084-0.0085-0.0084-0.0085-0.0084-0.0084-0.0085-0.0084-0.0084-0.0085-0.0084-0.0084-0.0085-0.0084-0.0085-0.0084-0.0084-0.0085-0.0084-0.0085-0.0084-0.0084-0.0085-0.0084-0.0085-0.0084-0.0085-0.0084-0.0084-0.0085-0.0084-0.0085-0.0084-0.0085-0.0084-0.0085-0.0084-0.0085-0.0084-0.0085-0.0084-0.0084-0.0085-0.0084-0.0085-0.0084-0.0085-0.0084-0.0085-0.0085-0.0084-0.0085-0.0084-0.0085-0.0084-0.0085-0.0084-0.0085-0.0084-0.0085-0.0084-0.0085-0.0085-0.0084-0.0085-0.0084-0.0085-0.0085-0.0084-0.0085-0.0084-0.0085-0.0085-0.0084-0.0085-0.0084-0.0085-0.0085-0.0084-0.0085-0.0085-0.0084-0.0085-0.0085-0.0084-0.0085-0.0085-0.0084-0.0085-0.0085-0.0084-0.0085-0.0085-0.0084-0.0085-0.0085-0.0085-0.0084-0.0085-0.0085-0.0084-0.0085-0.0085-0.0085-0.0084-0.0085-0.0085-0.0085-0.0085-0.0084-0.0085-0.0085-0.0085-0.0084-0.0085-0.0085-0.0085-0.0085-0.0085-0.0084-0.0085-0.0085-0.0085-0.0085-0.0085-0.0084-0.0085-0.0085-0.0085v0.0612h0.0085 0.0085 0.0085 0.0084 0.0085 0.0085 0.0085 0.0085 0.0085 0.0084 0.0085 0.0085 0.0085 0.0085 0.0085 0.0084 0.0085 0.0085 0.0085 0.0084 0.0085 0.0085 0.0085 0.0085 0.0084 0.0085 0.0085 0.0085 0.0084 0.0085 0.0085 0.0084 0.0085 0.0085 0.0085 0.0084 0.0085 0.0085 0.0084 0.0085 0.0085 0.0084 0.0085 0.0085 0.0084 0.0085 0.0085 0.0084 0.0085 0.0085 0.0084 0.0085 0.0085 0.0084 0.0085 0.0084 0.0085 0.0085 0.0084 0.0085 0.0084 0.0085 0.0085 0.0084 0.0085 0.0084 0.0085 0.0085 0.0084 0.0085 0.0084 0.0085 0.0084 0.0085 0.0084 0.0085 0.0084 0.0085 0.0084 0.0085 0.0085 0.0084 0.0085 0.0084 0.0085 0.0084 0.0085 0.0084 0.0084 0.0085 0.0084 0.0085 0.0084 0.0085 0.0084 0.0085 0.0084 0.0085 0.0084 0.0085 0.0084 0.0084 0.0085 0.0084 0.0085 0.0084 0.0085 0.0084 0.0084 0.0085 0.0084 0.0085 0.0084 0.0084 0.0085 0.0084 0.0085 0.0084 0.0084 0.0085 0.0084 0.0084 0.0085 0.0084 0.0084 0.0085 0.0084 0.0085 0.0084 0.0084 0.0085 0.0084 0.0084 0.0085 0.0084 0.0084 0.0084 0.0085 0.0084 0.0084 0.0085 0.0084 0.0084 0.0085 0.0084 0.0084 0.0084 0.0085 0.0084 0.0084 0.0085 0.0084 0.0084 0.0084 0.0085 0.0084 0.0084 0.0084 0.0085 0.0084 0.0084 0.0084 0.0085 0.0084 0.0084 0.0084 0.0085 0.0084 0.0084 0.0084 0.0085 0.0084 0.0084 0.0084 0.0084 0.0085 0.0084 0.0084 0.0084 0.0084 0.0085 0.0084 0.0084 0.0084 0.0084 0.0085 0.0084 0.0084 0.0084 0.0084 0.0084 0.0085 0.0084 0.0084 0.0084 0.0084 0.0084 0.0085 0.0084 0.0084 0.0084 0.0084 0.0084 0.0084 0.0085 0.0084 0.0084 0.0084 0.0084 0.0084 0.0084 0.0085 0.0084 0.0084 0.0084 0.0084 0.0084 0.0084 0.0084 0.0084 0.0085 0.0084 0.0084 0.0084 0.0084 0.0084 0.0084 0.0084 0.0084 0.0084 0.0085 0.0084 0.0084 0.0084 0.0084 0.0084 0.0084 0.0084 0.0084 0.0084 0.0084 0.0084 0.0085 0.0084 0.0084 0.0084 0.0084 0.0084 0.0084 0.0084 0.0084 0.0084 0.0084 0.0084 0.0084 0.0084 0.0084 0.0084 0.0084 0.0085 0.0084 0.0084 0.0084 0.0084 0.0084 0.0084 0.0084 0.0084 0.0084 0.0084 0.0084 0.0084 0.0084 0.0084 0.0084 0.0084 0.0084 0.0084 0.0084 0.0084 0.0084 0.0084 0.0084 0.0084 0.0084 0.0084 0.0084 0.0084 0.0084 0.0084 0.0084 0.0084 0.0084 0.0084 0.0084 0.0084 0.0084 0.0084 0.0084 0.0084 0.0084 0.0084 0.0084 0.0084 0.0084 0.0084 0.0084 0.0084 0.0084 0.0084 0.0084 0.0084 0.0084 0.0084 0.0084 0.0084 0.0084 0.0084 0.0084 0.0084 0.0084 0.0084 0.0084 0.0084 0.0084 0.0084 0.0084 0.0084 0.0084 0.0084 0.0084 0.0084 0.0084 0.0084 0.0084 0.0084 0.0084 0.0084 0.0084 0.0084 0.0084 0.0084 0.0084 0.0084 0.0084 0.0084 0.0084 0.0084 0.0084 0.0084 0.0084 0.0084 0.0084 0.0084 0.0084 0.0084 0.0084 0.0084 0.0084 0.0084 0.0084 0.0084 0.0084 0.0084 0.0084 0.0084 0.0084 0.0084 0.0084 0.0084 0.0084 0.0084 0.0084 0.0084 0.0084 0.0084 0.0084 0.0084 0.0084 0.0084 0.0084 0.0084 0.0084 0.0084 0.0084 0.0084 0.0084 0.0084 0.0084 0.0084 0.0084 0.0084 0.0084 0.0084 0.0084 0.0084 0.0084 0.0084 0.0084 0.0084 0.0084 0.0084 0.0084 0.0084 0.0084 0.0084 0.0084 0.0084 0.0084 0.0084 0.0084 0.0084 0.0084 0.0084 0.0084 0.0084 0.0084 0.0084 0.0084 0.0084 0.0084 0.0084 0.0084 0.0084 0.0084 0.0084 0.0084 0.0084 0.0084 0.0084 0.0084 0.0084 0.0084 0.0084 0.0084 0.0084 0.0084 0.0084 0.0084 0.0084 0.0084 0.0085 0.0084 0.0084 0.0084 0.0084 0.0084 0.0084 0.0084 0.0084 0.0084 0.0084 0.0084 0.0084 0.0084 0.0084 0.0084 0.0084 0.0085 0.0084 0.0084 0.0084 0.0084 0.0084 0.0084 0.0084 0.0084 0.0084 0.0084 0.0084 0.0084 0.0085 0.0084 0.0084 0.0084 0.0084 0.0084 0.0084 0.0084 0.0084 0.0084 0.0085 0.0084 0.0084 0.0084 0.0084 0.0084 0.0084 0.0084 0.0084 0.0085 0.0084 0.0084 0.0084 0.0084 0.0084 0.0084 0.0085 0.0084 0.0084 0.0084 0.0084 0.0084 0.0084 0.0085 0.0084 0.0084 0.0084 0.0084 0.0084 0.0085 0.0084v-0.0612zm-4.2809 0.0306v-4e-4 -4e-4 -4e-4 -4e-4 -4e-4 -4e-4 -4e-4 -4e-4 -4e-4 -4e-4 -4e-4 -5e-4 -4e-4 -4e-4 -4e-4 -4e-4 -4e-4 -4e-4 -4e-4 -4e-4 -4e-4 -4e-4 -4e-4 -4e-4 -4e-4 -4e-4 -4e-4 -4e-4 -4e-4 -4e-4 -4e-4 -4e-4 -4e-4 -4e-4 -4e-4 -4e-4 -4e-4 -4e-4 -4e-4 -4e-4 -4e-4 -4e-4 -4e-4 -5e-4 -4e-4 -4e-4 -4e-4 -4e-4 -4e-4 -4e-4 -4e-4 -4e-4 -4e-4 -4e-4 -4e-4 -4e-4 -4e-4 -4e-4 -4e-4 -4e-4 -4e-4 -4e-4 -4e-4 -4e-4 -4e-4 -4e-4 -4e-4 -4e-4 -4e-4 -4e-4 -4e-4 -4e-4 -4e-4 -4e-4 -3e-4 -4e-4 -4e-4 -4e-4 -4e-4 -4e-4 -4e-4 -4e-4 -4e-4 -4e-4 -4e-4 -4e-4 -4e-4 -4e-4 -4e-4 -4e-4 -4e-4 -4e-4 -4e-4 -4e-4 -4e-4 -4e-4 -4e-4 -4e-4 -4e-4 -4e-4 -4e-4 -4e-4 -4e-4 -4e-4 -4e-4 -4e-4 -4e-4 -4e-4 -4e-4 -3e-4 -4e-4 -4e-4 -4e-4 -4e-4 -4e-4 -4e-4 -4e-4 -4e-4 -4e-4 -4e-4 -4e-4 -4e-4 -4e-4 -4e-4 -4e-4 -4e-4 -4e-4 -4e-4 -3e-4 -4e-4 -4e-4 -4e-4 -4e-4 -4e-4 -4e-4 -4e-4 -4e-4 -4e-4 -4e-4 -4e-4 -4e-4 -4e-4 -4e-4 -4e-4 -3e-4 -4e-4 -4e-4 -4e-4 -4e-4 -4e-4 -4e-4 -4e-4 -4e-4 -4e-4 -4e-4 -4e-4 -4e-4 -3e-4 -4e-4 -4e-4 -4e-4 -4e-4 -4e-4 -4e-4 -4e-4 -4e-4 -4e-4 -4e-4 -3e-4 -4e-4 -4e-4 -4e-4 -4e-4 -4e-4 -4e-4 -4e-4 -4e-4 -4e-4 -4e-4 -3e-4 -4e-4 -4e-4 -4e-4 -4e-4 -4e-4 -4e-4 -4e-4 -4e-4 -4e-4 -3e-4 -4e-4 -4e-4 -4e-4 -4e-4 -4e-4 -4e-4 -4e-4 -4e-4 -4e-4 -3e-4 -4e-4 -4e-4 -4e-4 -4e-4 -4e-4 -4e-4 -4e-4 -3e-4 -4e-4 -4e-4 -4e-4 -4e-4 -4e-4 -4e-4 -4e-4 -4e-4 -3e-4 -4e-4 -4e-4 -4e-4 -4e-4 -4e-4 -4e-4 -4e-4 -3e-4 -4e-4 -4e-4 -4e-4 -4e-4 -4e-4 -4e-4 -4e-4 -3e-4 -4e-4 -4e-4 -4e-4 -4e-4 -4e-4 -4e-4 -3e-4 -4e-4 -4e-4 -4e-4 -4e-4 -4e-4 -4e-4 -4e-4 -3e-4 -4e-4 -4e-4 -4e-4 -4e-4 -4e-4 -4e-4 -3e-4 -4e-4 -4e-4 -4e-4 -4e-4 -4e-4 -4e-4 -3e-4 -4e-4 -4e-4 -4e-4 -4e-4 -4e-4 -4e-4 -3e-4 -4e-4 -4e-4 -4e-4 -4e-4 -4e-4 -3e-4 -4e-4 -4e-4 -4e-4 -4e-4 -4e-4 -4e-4 -3e-4 -4e-4 -4e-4 -4e-4 -4e-4 -4e-4 -3e-4 -4e-4 -4e-4 -4e-4 -4e-4 -4e-4 -3e-4 -4e-4 -4e-4 -4e-4 -4e-4 -4e-4 -3e-4 -4e-4 -4e-4 -4e-4 -4e-4 -4e-4 -4e-4 -3e-4 -4e-4 -4e-4 -4e-4 -4e-4 -3e-4 -4e-4 -4e-4 -4e-4 -4e-4 -4e-4 -3e-4 -4e-4 -4e-4 -4e-4 -4e-4 -4e-4 -3e-4 -4e-4 -4e-4 -4e-4 -4e-4 -4e-4 -3e-4 -4e-4 -4e-4 -4e-4 -4e-4 -4e-4 -3e-4 -4e-4 -4e-4 -4e-4 -4e-4 -3e-4 -4e-4 -4e-4 -4e-4 -4e-4 -4e-4 -3e-4 -4e-4 -4e-4 -4e-4 -4e-4 -3e-4 -4e-4 -4e-4 -4e-4 -4e-4 -3e-4 -4e-4 -4e-4 -4e-4 -4e-4 -4e-4 -3e-4 -4e-4 -4e-4 -4e-4 -4e-4 -3e-4 -4e-4 -4e-4 -4e-4 -4e-4 -3e-4 -4e-4 -4e-4 -4e-4 -4e-4 -4e-4 -3e-4 -4e-4 -4e-4 -4e-4 -4e-4 -3e-4 -4e-4 -4e-4 -4e-4 -4e-4 -3e-4 -4e-4 -4e-4 -4e-4 -4e-4 -3e-4 -4e-4 -4e-4 -4e-4 -4e-4 -3e-4 -4e-4 -4e-4 -4e-4 -4e-4 -3e-4 -4e-4 -4e-4 -4e-4 -4e-4 -3e-4 -4e-4 -4e-4 -4e-4 -4e-4 -3e-4 -4e-4 -4e-4 -4e-4 -4e-4 -3e-4 -4e-4 -4e-4 -4e-4 -4e-4 -3e-4 -4e-4 -4e-4 -4e-4 -4e-4 -3e-4 -4e-4 -4e-4 -4e-4 -4e-4 -3e-4 -4e-4 -4e-4 -4e-4 -4e-4 -3e-4 -4e-4 -4e-4 -4e-4 -4e-4 -3e-4 -4e-4 -4e-4 -4e-4 -4e-4 -3e-4 -4e-4 -4e-4 -4e-4 -4e-4 -3e-4 -4e-4 -4e-4 -4e-4 -3e-4 -4e-4 -4e-4 -4e-4 -4e-4 -3e-4 -4e-4 -4e-4 -4e-4 -4e-4 -3e-4 -4e-4 -4e-4 -4e-4 -4e-4 -3e-4 -4e-4 -4e-4 -4e-4 -4e-4 -3e-4 -4e-4 -4e-4 -4e-4 -3e-4 -4e-4 -4e-4 -4e-4 -4e-4 -3e-4 -4e-4 -4e-4 -4e-4 -4e-4 -3e-4 -4e-4 -4e-4 -4e-4 -4e-4 -3e-4 -4e-4 -4e-4 -4e-4 -3e-4 -4e-4 -4e-4 -4e-4 -4e-4 -3e-4 -4e-4 -4e-4 -4e-4 -4e-4 -3e-4 -4e-4h-0.0612v4e-4 3e-4 4e-4 4e-4 4e-4 4e-4 3e-4 4e-4 4e-4 4e-4 4e-4 3e-4 4e-4 4e-4 4e-4 3e-4 4e-4 4e-4 4e-4 4e-4 3e-4 4e-4 4e-4 4e-4 4e-4 3e-4 4e-4 4e-4 4e-4 4e-4 3e-4 4e-4 4e-4 4e-4 3e-4 4e-4 4e-4 4e-4 4e-4 3e-4 4e-4 4e-4 4e-4 4e-4 3e-4 4e-4 4e-4 4e-4 4e-4 3e-4 4e-4 4e-4 4e-4 4e-4 3e-4 4e-4 4e-4 4e-4 3e-4 4e-4 4e-4 4e-4 4e-4 3e-4 4e-4 4e-4 4e-4 4e-4 3e-4 4e-4 4e-4 4e-4 4e-4 3e-4 4e-4 4e-4 4e-4 4e-4 3e-4 4e-4 4e-4 4e-4 4e-4 3e-4 4e-4 4e-4 4e-4 4e-4 3e-4 4e-4 4e-4 4e-4 4e-4 3e-4 4e-4 4e-4 4e-4 4e-4 3e-4 4e-4 4e-4 4e-4 4e-4 3e-4 4e-4 4e-4 4e-4 4e-4 3e-4 4e-4 4e-4 4e-4 4e-4 3e-4 4e-4 4e-4 4e-4 4e-4 3e-4 4e-4 4e-4 4e-4 4e-4 3e-4 4e-4 4e-4 4e-4 4e-4 3e-4 4e-4 4e-4 4e-4 4e-4 3e-4 4e-4 4e-4 4e-4 4e-4 4e-4 3e-4 4e-4 4e-4 4e-4 4e-4 3e-4 4e-4 4e-4 4e-4 4e-4 3e-4 4e-4 4e-4 4e-4 4e-4 4e-4 3e-4 4e-4 4e-4 4e-4 4e-4 3e-4 4e-4 4e-4 4e-4 4e-4 3e-4 4e-4 4e-4 4e-4 4e-4 4e-4 3e-4 4e-4 4e-4 4e-4 4e-4 3e-4 4e-4 4e-4 4e-4 4e-4 4e-4 3e-4 4e-4 4e-4 4e-4 4e-4 4e-4 3e-4 4e-4 4e-4 4e-4 4e-4 4e-4 3e-4 4e-4 4e-4 4e-4 4e-4 4e-4 3e-4 4e-4 4e-4 4e-4 4e-4 3e-4 4e-4 4e-4 4e-4 4e-4 4e-4 4e-4 3e-4 4e-4 4e-4 4e-4 4e-4 4e-4 3e-4 4e-4 4e-4 4e-4 4e-4 4e-4 3e-4 4e-4 4e-4 4e-4 4e-4 4e-4 3e-4 4e-4 4e-4 4e-4 4e-4 4e-4 4e-4 3e-4 4e-4 4e-4 4e-4 4e-4 4e-4 3e-4 4e-4 4e-4 4e-4 4e-4 4e-4 4e-4 3e-4 4e-4 4e-4 4e-4 4e-4 4e-4 4e-4 3e-4 4e-4 4e-4 4e-4 4e-4 4e-4 4e-4 3e-4 4e-4 4e-4 4e-4 4e-4 4e-4 4e-4 4e-4 3e-4 4e-4 4e-4 4e-4 4e-4 4e-4 4e-4 3e-4 4e-4 4e-4 4e-4 4e-4 4e-4 4e-4 4e-4 3e-4 4e-4 4e-4 4e-4 4e-4 4e-4 4e-4 4e-4 3e-4 4e-4 4e-4 4e-4 4e-4 4e-4 4e-4 4e-4 4e-4 3e-4 4e-4 4e-4 4e-4 4e-4 4e-4 4e-4 4e-4 3e-4 4e-4 4e-4 4e-4 4e-4 4e-4 4e-4 4e-4 4e-4 4e-4 3e-4 4e-4 4e-4 4e-4 4e-4 4e-4 4e-4 4e-4 4e-4 4e-4 3e-4 4e-4 4e-4 4e-4 4e-4 4e-4 4e-4 4e-4 4e-4 4e-4 4e-4 3e-4 4e-4 4e-4 4e-4 4e-4 4e-4 4e-4 4e-4 4e-4 4e-4 4e-4 3e-4 4e-4 4e-4 4e-4 4e-4 4e-4 4e-4 4e-4 4e-4 4e-4 4e-4 4e-4 4e-4 3e-4 4e-4 4e-4 4e-4 4e-4 4e-4 4e-4 4e-4 4e-4 4e-4 4e-4 4e-4 4e-4 4e-4 4e-4 4e-4 3e-4 4e-4 4e-4 4e-4 4e-4 4e-4 4e-4 4e-4 4e-4 4e-4 4e-4 4e-4 4e-4 4e-4 4e-4 4e-4 4e-4 4e-4 4e-4 3e-4 4e-4 4e-4 4e-4 4e-4 4e-4 4e-4 4e-4 4e-4 4e-4 4e-4 4e-4 4e-4 4e-4 4e-4 4e-4 4e-4 4e-4 4e-4 4e-4 4e-4 4e-4 4e-4 4e-4 4e-4 4e-4 4e-4 4e-4 4e-4 4e-4 4e-4 4e-4 4e-4 4e-4 4e-4 3e-4 4e-4 4e-4 4e-4 4e-4 4e-4 4e-4 4e-4 4e-4 4e-4 4e-4 4e-4 4e-4 4e-4 4e-4 4e-4 4e-4 4e-4 4e-4 4e-4 4e-4 4e-4 4e-4 4e-4 4e-4 4e-4 4e-4 4e-4 4e-4 4e-4 4e-4 5e-4 4e-4 4e-4 4e-4 4e-4 4e-4 4e-4 4e-4 4e-4 4e-4 4e-4 4e-4 4e-4 4e-4 4e-4 4e-4 4e-4 4e-4 4e-4 4e-4 4e-4 4e-4 4e-4 4e-4 4e-4 4e-4 4e-4 4e-4 4e-4 4e-4 4e-4 4e-4 5e-4 4e-4 4e-4 4e-4 4e-4 4e-4 4e-4 4e-4 4e-4 4e-4 4e-4 4e-4h0.0612zm0-0.1986c0-2.3345-3e-4 -4.669 3e-4 -7.0032h-0.0612c-6e-4 2.3342-3e-4 4.6687-3e-4 7.0032h0.0612zm3e-4 -7.0032c0-0.4983-0.037-0.9918-0.1626-1.4798l-0.0593 0.0152c0.1239 0.4812 0.1607 0.9692 0.1607 1.4646h0.0612zm-0.1626-1.4799c-0.261-1.0119-0.9569-1.4907-1.7-1.5946-0.7405-0.1034-1.5285 0.1653-1.9787 0.6468l0.0447 0.0418c0.4353-0.4656 1.2029-0.7289 1.9255-0.6279 0.7201 0.1006 1.3948 0.5627 1.6492 1.5492l0.0593-0.0153zm-3.6787-0.9478c-0.4485 0.4797-0.7439 1.0246-0.7563 1.6992l0.0612 0.0011c0.0121-0.6551 0.2982-1.1862 0.7398-1.6585l-0.0447-0.0418zm-0.7563 1.6992c-0.0028 0.1559-0.012 0.3174-0.012 0.4753h0.0612c0-0.1584 0.0091-0.3138 0.012-0.4742l-0.0612-0.0011zm-0.012 0.4753c-1e-3 2.4161-7e-4 4.8324-7e-4 7.2484h0.0613c0-2.416-3e-4 -4.8323 6e-4 -7.2484h-0.0612zm-7e-4 7.2484v4e-4 4e-4 4e-4 3e-4 4e-4 4e-4 4e-4 4e-4 4e-4 3e-4 4e-4 4e-4 4e-4 4e-4 4e-4 3e-4 4e-4 4e-4 4e-4 4e-4 3e-4 4e-4 4e-4 4e-4 4e-4 4e-4 3e-4 4e-4 4e-4 4e-4 4e-4 4e-4 3e-4 4e-4 4e-4 4e-4 4e-4 4e-4 3e-4 4e-4 4e-4 4e-4 4e-4 4e-4 3e-4 4e-4 4e-4 4e-4 4e-4 4e-4 3e-4 4e-4 4e-4 4e-4 4e-4 3e-4 4e-4 4e-4 4e-4 4e-4 4e-4 3e-4 4e-4 4e-4 4e-4 4e-4 4e-4 3e-4 4e-4 4e-4 4e-4 4e-4 4e-4 4e-4 3e-4 4e-4 4e-4 4e-4 4e-4 4e-4 3e-4 4e-4 4e-4 4e-4 4e-4 4e-4 3e-4 4e-4 4e-4 4e-4 4e-4 4e-4 3e-4 4e-4 4e-4 4e-4 4e-4 4e-4 4e-4 3e-4 4e-4 4e-4 4e-4 4e-4 4e-4 3e-4 4e-4 4e-4 4e-4 4e-4 4e-4 4e-4 3e-4 4e-4 4e-4 4e-4 4e-4 4e-4 4e-4 3e-4 4e-4 4e-4 4e-4 4e-4 4e-4 4e-4 3e-4 4e-4 4e-4 4e-4 4e-4 4e-4 4e-4 3e-4 4e-4 4e-4 4e-4 4e-4 4e-4 4e-4 4e-4 3e-4 4e-4 4e-4 4e-4 4e-4 4e-4 4e-4 3e-4 4e-4 4e-4 4e-4 4e-4 4e-4 4e-4 4e-4 3e-4 4e-4 4e-4 4e-4 4e-4 4e-4 4e-4 4e-4 4e-4 3e-4 4e-4 4e-4 4e-4 4e-4 4e-4 4e-4 4e-4 4e-4 3e-4 4e-4 4e-4 4e-4 4e-4 4e-4 4e-4 4e-4 4e-4 3e-4 4e-4 4e-4 4e-4 4e-4 4e-4 4e-4 4e-4 4e-4 4e-4 3e-4 4e-4 4e-4 4e-4 4e-4 4e-4 4e-4 4e-4 4e-4 4e-4 4e-4 3e-4 4e-4 4e-4 4e-4 4e-4 4e-4 4e-4 4e-4 4e-4 4e-4 4e-4 4e-4 4e-4 3e-4 4e-4 4e-4 4e-4 4e-4 4e-4 4e-4 4e-4 4e-4 4e-4 4e-4 4e-4 4e-4 4e-4 4e-4 3e-4 4e-4 4e-4 4e-4 4e-4 4e-4 4e-4 4e-4 4e-4 4e-4 4e-4 4e-4 4e-4 4e-4 4e-4 4e-4 4e-4 4e-4 4e-4 4e-4 3e-4 4e-4 4e-4 4e-4 4e-4 4e-4 4e-4 4e-4 4e-4 4e-4 4e-4 4e-4 4e-4 4e-4 4e-4 4e-4 4e-4 4e-4 4e-4 4e-4 4e-4 4e-4 4e-4 4e-4 4e-4 4e-4 4e-4 4e-4 4e-4 4e-4 4e-4 4e-4 4e-4 4e-4 4e-4 4e-4 4e-4 4e-4 4e-4 4e-4 4e-4 4e-4 4e-4 4e-4 4e-4 4e-4 4e-4 4e-4 4e-4 4e-4 4e-4 4e-4 4e-4 4e-4 4e-4 4e-4 4e-4 4e-4 4e-4 4e-4 4e-4 4e-4 4e-4 4e-4 4e-4 4e-4 4e-4 5e-4 4e-4 4e-4 4e-4 4e-4 4e-4 4e-4 4e-4 4e-4 4e-4 4e-4 4e-4 4e-4 4e-4 4e-4 4e-4 4e-4 4e-4 5e-4 4e-4 4e-4 4e-4 4e-4 4e-4 4e-4 4e-4 4e-4 4e-4 4e-4 4e-4 4e-4 5e-4 4e-4 4e-4 4e-4 4e-4 4e-4 4e-4 4e-4 4e-4 4e-4 4e-4 5e-4 4e-4 4e-4 4e-4 4e-4 4e-4 4e-4 4e-4 4e-4 5e-4 4e-4 4e-4 4e-4 4e-4 4e-4 4e-4 4e-4 5e-4 4e-4 4e-4 4e-4 4e-4 4e-4 4e-4 5e-4 4e-4 4e-4 4e-4 4e-4 4e-4 4e-4 5e-4 4e-4 4e-4 4e-4 4e-4 4e-4 5e-4 4e-4 4e-4 4e-4 4e-4 4e-4 5e-4 4e-4 4e-4 4e-4 4e-4 4e-4 5e-4 4e-4 4e-4 4e-4 4e-4 5e-4 4e-4 4e-4 4e-4 4e-4 5e-4 4e-4 4e-4 4e-4 4e-4 5e-4 4e-4 4e-4 4e-4 4e-4 5e-4 4e-4 4e-4 4e-4 5e-4 4e-4 4e-4 4e-4 4e-4 5e-4 4e-4 4e-4 4e-4 5e-4 4e-4 4e-4 4e-4 5e-4 4e-4 4e-4 4e-4 5e-4 4e-4 4e-4 4e-4 5e-4 4e-4 4e-4 5e-4 4e-4 4e-4 4e-4 5e-4 4e-4 4e-4 4e-4 5e-4 4e-4 4e-4 5e-4 4e-4 4e-4 5e-4 4e-4 4e-4 4e-4 5e-4 4e-4 4e-4 5e-4 4e-4 4e-4 5e-4 4e-4 4e-4 5e-4 4e-4 4e-4 5e-4 4e-4 4e-4 5e-4 4e-4 4e-4 5e-4 4e-4 4e-4 5e-4 4e-4 4e-4 5e-4 4e-4 5e-4 4e-4 4e-4 5e-4 4e-4 4e-4 5e-4 4e-4 4e-4 5e-4h0.0613v-5e-4 -4e-4 -4e-4 -5e-4 -4e-4 -4e-4 -5e-4 -4e-4 -4e-4 -5e-4 -4e-4 -5e-4 -4e-4 -4e-4 -5e-4 -4e-4 -4e-4 -5e-4 -4e-4 -4e-4 -5e-4 -4e-4 -4e-4 -5e-4 -4e-4 -4e-4 -5e-4 -4e-4 -4e-4 -5e-4 -4e-4 -4e-4 -5e-4 -4e-4 -4e-4 -5e-4 -4e-4 -4e-4 -4e-4 -5e-4 -4e-4 -4e-4 -5e-4 -4e-4 -4e-4 -5e-4 -4e-4 -4e-4 -4e-4 -5e-4 -4e-4 -4e-4 -4e-4 -5e-4 -4e-4 -4e-4 -5e-4 -4e-4 -4e-4 -4e-4 -5e-4 -4e-4 -4e-4 -4e-4 -5e-4 -4e-4 -4e-4 -4e-4 -5e-4 -4e-4 -4e-4 -4e-4 -5e-4 -4e-4 -4e-4 -4e-4 -4e-4 -5e-4 -4e-4 -4e-4 -4e-4 -5e-4 -4e-4 -4e-4 -4e-4 -4e-4 -5e-4 -4e-4 -4e-4 -4e-4 -4e-4 -5e-4 -4e-4 -4e-4 -4e-4 -4e-4 -5e-4 -4e-4 -4e-4 -4e-4 -4e-4 -5e-4 -4e-4 -4e-4 -4e-4 -4e-4 -4e-4 -5e-4 -4e-4 -4e-4 -4e-4 -4e-4 -4e-4 -5e-4 -4e-4 -4e-4 -4e-4 -4e-4 -4e-4 -5e-4 -4e-4 -4e-4 -4e-4 -4e-4 -4e-4 -4e-4 -5e-4 -4e-4 -4e-4 -4e-4 -4e-4 -4e-4 -4e-4 -5e-4 -4e-4 -4e-4 -4e-4 -4e-4 -4e-4 -4e-4 -4e-4 -5e-4 -4e-4 -4e-4 -4e-4 -4e-4 -4e-4 -4e-4 -4e-4 -4e-4 -5e-4 -4e-4 -4e-4 -4e-4 -4e-4 -4e-4 -4e-4 -4e-4 -4e-4 -4e-4 -4e-4 -5e-4 -4e-4 -4e-4 -4e-4 -4e-4 -4e-4 -4e-4 -4e-4 -4e-4 -4e-4 -4e-4 -4e-4 -4e-4 -5e-4 -4e-4 -4e-4 -4e-4 -4e-4 -4e-4 -4e-4 -4e-4 -4e-4 -4e-4 -4e-4 -4e-4 -4e-4 -4e-4 -4e-4 -4e-4 -4e-4 -4e-4 -5e-4 -4e-4 -4e-4 -4e-4 -4e-4 -4e-4 -4e-4 -4e-4 -4e-4 -4e-4 -4e-4 -4e-4 -4e-4 -4e-4 -4e-4 -4e-4 -4e-4 -4e-4 -4e-4 -4e-4 -4e-4 -4e-4 -4e-4 -4e-4 -4e-4 -4e-4 -4e-4 -4e-4 -4e-4 -4e-4 -4e-4 -4e-4 -4e-4 -4e-4 -4e-4 -4e-4 -4e-4 -4e-4 -4e-4 -4e-4 -4e-4 -4e-4 -4e-4 -4e-4 -4e-4 -4e-4 -4e-4 -4e-4 -4e-4 -4e-4 -4e-4 -4e-4 -4e-4 -4e-4 -4e-4 -4e-4 -4e-4 -4e-4 -4e-4 -4e-4 -4e-4 -4e-4 -4e-4 -4e-4 -4e-4 -4e-4 -4e-4 -3e-4 -4e-4 -4e-4 -4e-4 -4e-4 -4e-4 -4e-4 -4e-4 -4e-4 -4e-4 -4e-4 -4e-4 -4e-4 -4e-4 -4e-4 -4e-4 -4e-4 -4e-4 -4e-4 -4e-4 -3e-4 -4e-4 -4e-4 -4e-4 -4e-4 -4e-4 -4e-4 -4e-4 -4e-4 -4e-4 -4e-4 -4e-4 -4e-4 -4e-4 -4e-4 -3e-4 -4e-4 -4e-4 -4e-4 -4e-4 -4e-4 -4e-4 -4e-4 -4e-4 -4e-4 -4e-4 -4e-4 -4e-4 -3e-4 -4e-4 -4e-4 -4e-4 -4e-4 -4e-4 -4e-4 -4e-4 -4e-4 -4e-4 -4e-4 -3e-4 -4e-4 -4e-4 -4e-4 -4e-4 -4e-4 -4e-4 -4e-4 -4e-4 -4e-4 -3e-4 -4e-4 -4e-4 -4e-4 -4e-4 -4e-4 -4e-4 -4e-4 -4e-4 -3e-4 -4e-4 -4e-4 -4e-4 -4e-4 -4e-4 -4e-4 -4e-4 -4e-4 -3e-4 -4e-4 -4e-4 -4e-4 -4e-4 -4e-4 -4e-4 -4e-4 -4e-4 -3e-4 -4e-4 -4e-4 -4e-4 -4e-4 -4e-4 -4e-4 -4e-4 -3e-4 -4e-4 -4e-4 -4e-4 -4e-4 -4e-4 -4e-4 -3e-4 -4e-4 -4e-4 -4e-4 -4e-4 -4e-4 -4e-4 -4e-4 -3e-4 -4e-4 -4e-4 -4e-4 -4e-4 -4e-4 -4e-4 -3e-4 -4e-4 -4e-4 -4e-4 -4e-4 -4e-4 -4e-4 -3e-4 -4e-4 -4e-4 -4e-4 -4e-4 -4e-4 -4e-4 -3e-4 -4e-4 -4e-4 -4e-4 -4e-4 -4e-4 -4e-4 -3e-4 -4e-4 -4e-4 -4e-4 -4e-4 -4e-4 -3e-4 -4e-4 -4e-4 -4e-4 -4e-4 -4e-4 -4e-4 -3e-4 -4e-4 -4e-4 -4e-4 -4e-4 -4e-4 -3e-4 -4e-4 -4e-4 -4e-4 -4e-4 -4e-4 -3e-4 -4e-4 -4e-4 -4e-4 -4e-4 -4e-4 -3e-4 -4e-4 -4e-4 -4e-4 -4e-4 -4e-4 -4e-4 -3e-4 -4e-4 -4e-4 -4e-4 -4e-4 -4e-4 -3e-4 -4e-4 -4e-4 -4e-4 -4e-4 -4e-4 -3e-4 -4e-4 -4e-4 -4e-4 -4e-4 -3e-4 -4e-4 -4e-4 -4e-4 -4e-4 -4e-4 -3e-4 -4e-4 -4e-4 -4e-4 -4e-4 -4e-4 -3e-4 -4e-4 -4e-4 -4e-4 -4e-4 -4e-4 -3e-4 -4e-4 -4e-4 -4e-4 -4e-4 -4e-4 -3e-4 -4e-4 -4e-4 -4e-4 -4e-4 -4e-4 -3e-4 -4e-4 -4e-4 -4e-4 -4e-4 -3e-4 -4e-4 -4e-4 -4e-4 -4e-4 -4e-4 -3e-4 -4e-4 -4e-4 -4e-4 -4e-4 -4e-4 -3e-4 -4e-4 -4e-4 -4e-4h-0.0613zm0.0307 0.1748h-0.0085-0.0085-0.0084-0.0085-0.0084-0.0085-0.0084-0.0084-0.0085-0.0084-0.0085-0.0084-0.0085-0.0084-0.0085-0.0084-0.0085-0.0084-0.0085-0.0084-0.0084-0.0085-0.0084-0.0085-0.0084-0.0085-0.0084-0.0084-0.0085-0.0084-0.0085-0.0084-0.0085-0.0084-0.0084-0.0085-0.0084-0.0084-0.0085-0.0084-0.0085-0.0084-0.0084-0.0085-0.0084-0.0084-0.0085-0.0084-0.0084-0.0085-0.0084-0.0084-0.0085-0.0084-0.0084-0.0085-0.0084-0.0084-0.0085-0.0084-0.0084-0.0085-0.0084-0.0084-0.0085-0.0084-0.0084-0.0084-0.0085-0.0084-0.0084-0.0085-0.0084-0.0084-0.0084-0.0085-0.0084-0.0084-0.0084-0.0085-0.0084-0.0084-0.0084-0.0085-0.0084-0.0084-0.0084-0.0085-0.0084-0.0084-0.0084-0.0085-0.0084-0.0084-0.0084-0.0084-0.0085-0.0084-0.0084-0.0084-0.0084-0.0085-0.0084-0.0084-0.0084-0.0084-0.0085-0.0084-0.0084-0.0084-0.0084-0.0084-0.0085-0.0084-0.0084-0.0084-0.0084-0.0084-0.0085-0.0084-0.0084-0.0084-0.0084-0.0084-0.0084-0.0085-0.0084-0.0084-0.0084-0.0084-0.0084-0.0084-0.0084-0.0085-0.0084-0.0084-0.0084-0.0084-0.0084-0.0084-0.0084-0.0084-0.0085-0.0084-0.0084-0.0084-0.0084-0.0084-0.0084-0.0084-0.0084-0.0084-0.0084-0.0084-0.0085-0.0084-0.0084-0.0084-0.0084-0.0084-0.0084-0.0084-0.0084-0.0084-0.0084-0.0084-0.0084-0.0084-0.0084-0.0084-0.0084-0.0085-0.0084-0.0084-0.0084-0.0084-0.0084-0.0084-0.0084-0.0084-0.0084-0.0084-0.0084-0.0084-0.0084-0.0084-0.0084-0.0084-0.0084-0.0084-0.0084-0.0084-0.0084-0.0084-0.0084-0.0084-0.0084-0.0084-0.0084-0.0084-0.0084-0.0084-0.0084-0.0084-0.0084-0.0084-0.0084-0.0084-0.0084-0.0084-0.0084-0.0084-0.0084-0.0084-0.0084-0.0084-0.0084-0.0084-0.0084-0.0084-0.0084-0.0084-0.0084-0.0084-0.0084-0.0084-0.0083-0.0084-0.0084-0.0084-0.0084-0.0084-0.0084-0.0084-0.0084-0.0084-0.0084-0.0084-0.0084-0.0084-0.0084-0.0084-0.0084-0.0084-0.0084-0.0084-0.0084-0.0083-0.0084-0.0084-0.0084-0.0084-0.0084-0.0084-0.0084-0.0084-0.0084-0.0084-0.0084-0.0084-0.0084-0.0084-0.0083-0.0084-0.0084-0.0084-0.0084-0.0084-0.0084-0.0084-0.0084-0.0084-0.0084-0.0084-0.0084-0.0083-0.0084-0.0084-0.0084-0.0084-0.0084-0.0084-0.0084-0.0084-0.0084-0.0084-0.0084-0.0083-0.0084-0.0084-0.0084-0.0084-0.0084-0.0084-0.0084-0.0084-0.0084-0.0084-0.0084-0.0083-0.0084-0.0084-0.0084-0.0084-0.0084-0.0084-0.0084-0.0084-0.0084-0.0084-0.0083-0.0084-0.0084-0.0084-0.0084-0.0084-0.0084-0.0084-0.0084-0.0084-0.0083-0.0084-0.0084-0.0084-0.0084-0.0084-0.0084-0.0084-0.0084-0.0084-0.0084-0.0083-0.0084-0.0084-0.0084-0.0084-0.0084-0.0084-0.0084-0.0084-0.0084-0.0083-0.0084-0.0084-0.0084-0.0084-0.0084-0.0084-0.0084-0.0084-0.0084-0.0084-0.0083-0.0084-0.0084-0.0084-0.0084-0.0084-0.0084-0.0084-0.0084-0.0084-0.0084-0.0083-0.0084-0.0084-0.0084-0.0084-0.0084-0.0084-0.0084-0.0084-0.0084-0.0084-0.0084-0.0083-0.0084-0.0084-0.0084-0.0084-0.0084-0.0084-0.0084-0.0084-0.0084-0.0084-0.0084-0.0084-0.0083-0.0084-0.0084-0.0084-0.0084-0.0084-0.0084-0.0084-0.0084-0.0084-0.0084-0.0084-0.0084-0.0084-0.0084-0.0083-0.0084-0.0084-0.0084-0.0084-0.0084-0.0084-0.0084-0.0084-0.0084-0.0084-0.0084-0.0084-0.0084-0.0084-0.0084-0.0084-0.0084-0.0084-0.0083-0.0084-0.0084-0.0084-0.0084-0.0084-0.0084-0.0084-0.0084-0.0084-0.0084-0.0084-0.0084-0.0084-0.0084-0.0084-0.0084-0.0084-0.0084-0.0084-0.0084-0.0084-0.0084-0.0084-0.0084-0.0084-0.0084-0.0084-0.0084-0.0084-0.0084-0.0084-0.0084-0.0084-0.0084-0.0084-0.0084-0.0084-0.0084-0.0084-0.0084-0.0084-0.0084-0.0084-0.0084-0.0084-0.0084-0.0084-0.0084-0.0084-0.0084-0.0084-0.0084-0.0084-0.0084-0.0084-0.0084-0.0084-0.0084-0.0084-0.0084-0.0084-0.0084-0.0084-0.0085-0.0084-0.0084-0.0084-0.0084-0.0084-0.0084-0.0084-0.0084-0.0084-0.0084-0.0084-0.0084-0.0084-0.0084-0.0085-0.0084-0.0084-0.0084-0.0084-0.0084-0.0084-0.0084-0.0084-0.0084-0.0084v0.0612h0.0084 0.0084 0.0084 0.0084 0.0084 0.0084 0.0084 0.0084 0.0084 0.0084 0.0085 0.0084 0.0084 0.0084 0.0084 0.0084 0.0084 0.0084 0.0084 0.0084 0.0084 0.0084 0.0084 0.0084 0.0084 0.0085 0.0084 0.0084 0.0084 0.0084 0.0084 0.0084 0.0084 0.0084 0.0084 0.0084 0.0084 0.0084 0.0084 0.0084 0.0084 0.0084 0.0084 0.0084 0.0084 0.0084 0.0084 0.0084 0.0084 0.0084 0.0084 0.0084 0.0084 0.0084 0.0084 0.0084 0.0084 0.0084 0.0084 0.0084 0.0084 0.0084 0.0084 0.0084 0.0084 0.0084 0.0084 0.0084 0.0084 0.0084 0.0084 0.0084 0.0084 0.0084 0.0084 0.0084 0.0084 0.0084 0.0084 0.0084 0.0084 0.0084 0.0084 0.0084 0.0084 0.0084 0.0084 0.0084 0.0084 0.0083 0.0084 0.0084 0.0084 0.0084 0.0084 0.0084 0.0084 0.0084 0.0084 0.0084 0.0084 0.0084 0.0084 0.0084 0.0084 0.0084 0.0084 0.0084 0.0083 0.0084 0.0084 0.0084 0.0084 0.0084 0.0084 0.0084 0.0084 0.0084 0.0084 0.0084 0.0084 0.0084 0.0084 0.0083 0.0084 0.0084 0.0084 0.0084 0.0084 0.0084 0.0084 0.0084 0.0084 0.0084 0.0084 0.0084 0.0083 0.0084 0.0084 0.0084 0.0084 0.0084 0.0084 0.0084 0.0084 0.0084 0.0084 0.0084 0.0083 0.0084 0.0084 0.0084 0.0084 0.0084 0.0084 0.0084 0.0084 0.0084 0.0084 0.0083 0.0084 0.0084 0.0084 0.0084 0.0084 0.0084 0.0084 0.0084 0.0084 0.0084 0.0083 0.0084 0.0084 0.0084 0.0084 0.0084 0.0084 0.0084 0.0084 0.0084 0.0083 0.0084 0.0084 0.0084 0.0084 0.0084 0.0084 0.0084 0.0084 0.0084 0.0084 0.0083 0.0084 0.0084 0.0084 0.0084 0.0084 0.0084 0.0084 0.0084 0.0084 0.0083 0.0084 0.0084 0.0084 0.0084 0.0084 0.0084 0.0084 0.0084 0.0084 0.0084 0.0083 0.0084 0.0084 0.0084 0.0084 0.0084 0.0084 0.0084 0.0084 0.0084 0.0084 0.0084 0.0083 0.0084 0.0084 0.0084 0.0084 0.0084 0.0084 0.0084 0.0084 0.0084 0.0084 0.0084 0.0083 0.0084 0.0084 0.0084 0.0084 0.0084 0.0084 0.0084 0.0084 0.0084 0.0084 0.0084 0.0084 0.0083 0.0084 0.0084 0.0084 0.0084 0.0084 0.0084 0.0084 0.0084 0.0084 0.0084 0.0084 0.0084 0.0084 0.0084 0.0083 0.0084 0.0084 0.0084 0.0084 0.0084 0.0084 0.0084 0.0084 0.0084 0.0084 0.0084 0.0084 0.0084 0.0084 0.0084 0.0084 0.0084 0.0084 0.0084 0.0084 0.0083 0.0084 0.0084 0.0084 0.0084 0.0084 0.0084 0.0084 0.0084 0.0084 0.0084 0.0084 0.0084 0.0084 0.0084 0.0084 0.0084 0.0084 0.0084 0.0084 0.0084 0.0084 0.0084 0.0084 0.0084 0.0084 0.0084 0.0084 0.0084 0.0084 0.0084 0.0084 0.0084 0.0084 0.0084 0.0084 0.0084 0.0084 0.0084 0.0084 0.0084 0.0084 0.0084 0.0084 0.0084 0.0084 0.0084 0.0084 0.0084 0.0084 0.0084 0.0084 0.0084 0.0084 0.0084 0.0085 0.0084 0.0084 0.0084 0.0084 0.0084 0.0084 0.0084 0.0084 0.0084 0.0084 0.0084 0.0084 0.0084 0.0084 0.0084 0.0084 0.0085 0.0084 0.0084 0.0084 0.0084 0.0084 0.0084 0.0084 0.0084 0.0084 0.0084 0.0084 0.0085 0.0084 0.0084 0.0084 0.0084 0.0084 0.0084 0.0084 0.0084 0.0085 0.0084 0.0084 0.0084 0.0084 0.0084 0.0084 0.0084 0.0085 0.0084 0.0084 0.0084 0.0084 0.0084 0.0084 0.0085 0.0084 0.0084 0.0084 0.0084 0.0084 0.0085 0.0084 0.0084 0.0084 0.0084 0.0084 0.0085 0.0084 0.0084 0.0084 0.0084 0.0085 0.0084 0.0084 0.0084 0.0084 0.0085 0.0084 0.0084 0.0084 0.0084 0.0085 0.0084 0.0084 0.0084 0.0085 0.0084 0.0084 0.0084 0.0085 0.0084 0.0084 0.0084 0.0085 0.0084 0.0084 0.0084 0.0085 0.0084 0.0084 0.0084 0.0085 0.0084 0.0084 0.0085 0.0084 0.0084 0.0084 0.0085 0.0084 0.0084 0.0085 0.0084 0.0084 0.0085 0.0084 0.0084 0.0085 0.0084 0.0084 0.0085 0.0084 0.0084 0.0085 0.0084 0.0084 0.0085 0.0084 0.0084 0.0085 0.0084 0.0084 0.0085 0.0084 0.0085 0.0084 0.0084 0.0085 0.0084 0.0084 0.0085 0.0084 0.0085 0.0084 0.0085 0.0084 0.0084 0.0085 0.0084 0.0085 0.0084 0.0085 0.0084 0.0084 0.0085 0.0084 0.0085 0.0084 0.0085 0.0084 0.0085 0.0084 0.0085 0.0084 0.0085 0.0084 0.0084 0.0085 0.0084 0.0085 0.0084 0.0085 0.0085v-0.0612zm-4.2732 0.0306v-0.0261-0.0261-0.0261-0.0261-0.0261-0.0261-0.0261-0.0262-0.0261-0.0261-0.0261-0.0261-0.0261-0.0261-0.0261-0.0261-0.0261-0.0261-0.0261-0.0261-0.0261-0.0261-0.0261-0.0261-0.0261-0.0261-0.0261-0.0261-0.0261-0.0261-0.0261-0.0261-0.0261-0.0261-0.0261-0.0261-0.0261-0.0262-0.0261-0.0261-0.0261-0.0261-0.0261-0.0261-0.0261-0.0261-0.0261-0.0261-0.0261-0.0261-0.0261-0.0261-0.0261-0.0261-0.0261-0.0261-0.0261-0.0261-0.0261-0.0261-0.0261-0.0261-0.0261-0.0261-0.0261-0.0261-0.0261-0.0261-0.0261-0.0261-0.0261-0.0261-0.0261-0.0261-0.0261-0.0261-0.0261-0.0261-0.0261-0.0261-0.0261-0.0261-0.0261-0.0261-0.0261-0.0261-0.0261-0.0261-0.0261-0.026-0.0261-0.0261-0.0261-0.0261-0.0261-0.0261-0.0261-0.0261-0.0261-0.0261-0.0261-0.0261-0.0261-0.0261-0.0261-0.0261-0.0261-0.0261-0.0261-0.0261-0.0261-0.0261-0.0261-0.0261-0.0261-0.0261-0.0261-0.0261-0.0261-0.0261-0.0261-0.0261-0.0261-0.0261-0.0261-0.0261-0.0261-0.0261-0.026-0.0261-0.0261-0.0261-0.0261-0.0261-0.0261-0.0261-0.0261-0.0261-0.0261-0.0261-0.0261-0.0261-0.0261-0.0261-0.0261-0.0261-0.0261-0.0261-0.0261-0.0261-0.0261-0.0261-0.0261-0.0261-0.0261-0.0261-0.026-0.0261-0.0261-0.0261-0.0261-0.0261-0.0261-0.0261-0.0261-0.0261-0.0261-0.0261-0.0261-0.0261-0.0261-0.0261-0.0261-0.0261-0.0261-0.0261-0.0261-0.0261-0.0261-0.0261-0.026-0.0261-0.0261-0.0261-0.0261-0.0261-0.0261-0.0261-0.0261-0.0261-0.0261-0.0261-0.0261-0.0261-0.0261-0.0261-0.0261-0.0261-0.0261-0.0261-0.0261-0.0261-0.0261-0.0261-0.026-0.0261-0.0261-0.0261-0.0261-0.0261-0.0261-0.0261-0.0261-0.0261-0.0261-0.0261-0.0261-0.0261-0.0261-0.0261-0.0261-0.0261-0.0261-0.0261-0.0261-0.0261-0.0261-0.0261-0.0261-0.0261-0.0261-0.026-0.0261-0.0261-0.0261-0.0261-0.0261-0.0261-0.0261-0.0261-0.0261-0.0261-0.0261-0.0261-0.0261-0.0261-0.0261-0.0261-0.0261-0.0261-0.0261-0.0261-0.0261-0.0261-0.0261-0.0261-0.0261-0.0261-0.0261-0.0261-0.0261-0.0261-0.0261-0.0261-0.0261-0.0261-0.026-0.0261-0.0261-0.0261-0.0261-0.0261-0.0261-0.0261-0.0261-0.0261-0.0261-0.0261-0.0261-0.0261-0.0261-0.0261-0.0261-0.0261-0.0261-0.0261-0.0261-0.0261-0.0261-0.0261-0.0261-0.0261-0.0261-0.0261-0.0261-0.0261-0.0261-0.0261-0.0261-0.0261-0.0261-0.0261-0.0261-0.0261-0.0261-0.0261-0.0261-0.0261-0.0261-0.0261-0.0261-0.0261-0.0261-0.0261-0.0261-0.0261-0.0261-0.0261-0.0261-0.0261-0.0261-0.0261-0.0261-0.0261-0.0261-0.0261-0.0261-0.0261-0.0261-0.0261-0.0261-0.0261-0.0261-0.0261-0.0261-0.0261-0.0262-0.0261-0.0261-0.0261-0.0261-0.0261-0.0261-0.0261-0.0261-0.0261-0.0261-0.0261-0.0261-0.0261-0.0261-0.0261-0.0261-0.0261-0.0261-0.0261-0.0261-0.0261-0.0261-0.0261-0.0261-0.0261-0.0262-0.0261-0.0261-0.0261-0.0261-0.0261-0.0261-0.0261-0.0261-0.0261-0.0261-0.0261-0.0261-0.0261-0.0261-0.0261-0.0261-0.0262-0.0261-0.0261-0.0261-0.0261-0.0261-0.0261-0.0261-0.0261-0.0261-0.0261-0.0261-0.0261-0.0262-0.0261-0.0261-0.0261-0.0261-0.0261-0.0261-0.0261-0.0261-0.0261-0.0261-0.0262-0.0261-0.0261-0.0261-0.0261-0.0261-0.0261-0.0261-0.0261-0.0262-0.0261-0.0261-0.0261-0.0261-0.0261-0.0261-0.0261-0.0261-0.0262-0.0261-0.0261-0.0261-0.0261-0.0261-0.0261-0.0261-0.0262-0.0261-0.0261-0.0261-0.0261-0.0261-0.0261-0.0262-0.0261-0.0261-0.0261-0.0261-0.0261-0.0261-0.0262-0.0261-0.0261-0.0261-0.0261-0.0261-0.0262-0.0261-0.0261-0.0261-0.0261-0.0261-0.0262-0.0261-0.0261-0.0261-0.0261-0.0261-0.0262-0.0261-0.0261-0.0261-0.0261-0.0262-0.0261-0.0261-0.0261-0.0261-0.0262-0.0261-0.0261-0.0261-0.0261-0.0262-0.0261-0.0261-0.0261-0.0261-0.0262-0.0261-0.0261-0.0261-0.0262-0.0261-0.0261-0.0261-0.0261-0.0262-0.0261-0.0261-0.0261-0.0262-0.0261-0.0261-0.0261-0.0262-0.0261-0.0261-0.0261-0.0262-0.0261-0.0261-0.0261-0.0262-0.0261-0.0261-0.0261-0.0262-0.0261h-0.0612v0.0261 0.0262 0.0261 0.0261 0.0261 0.0262 0.0261 0.0261 0.0261 0.0262 0.0261 0.0261 0.0261 0.0262 0.0261 0.0261 0.0261 0.0262 0.0261 0.0261 0.0261 0.0262 0.0261 0.0261 0.0261 0.0261 0.0262 0.0261 0.0261 0.0261 0.0262 0.0261 0.0261 0.0261 0.0261 0.0262 0.0261 0.0261 0.0261 0.0261 0.0262 0.0261 0.0261 0.0261 0.0261 0.0262 0.0261 0.0261 0.0261 0.0261 0.0262 0.0261 0.0261 0.0261 0.0261 0.0261 0.0262 0.0261 0.0261 0.0261 0.0261 0.0261 0.0262 0.0261 0.0261 0.0261 0.0261 0.0261 0.0262 0.0261 0.0261 0.0261 0.0261 0.0261 0.0261 0.0262 0.0261 0.0261 0.0261 0.0261 0.0261 0.0261 0.0262 0.0261 0.0261 0.0261 0.0261 0.0261 0.0261 0.0261 0.0262 0.0261 0.0261 0.0261 0.0261 0.0261 0.0261 0.0261 0.0261 0.0262 0.0261 0.0261 0.0261 0.0261 0.0261 0.0261 0.0261 0.0261 0.0262 0.0261 0.0261 0.0261 0.0261 0.0261 0.0261 0.0261 0.0261 0.0261 0.0261 0.0262 0.0261 0.0261 0.0261 0.0261 0.0261 0.0261 0.0261 0.0261 0.0261 0.0261 0.0261 0.0261 0.0262 0.0261 0.0261 0.0261 0.0261 0.0261 0.0261 0.0261 0.0261 0.0261 0.0261 0.0261 0.0261 0.0261 0.0261 0.0261 0.0261 0.0262 0.0261 0.0261 0.0261 0.0261 0.0261 0.0261 0.0261 0.0261 0.0261 0.0261 0.0261 0.0261 0.0261 0.0261 0.0261 0.0261 0.0261 0.0261 0.0261 0.0261 0.0261 0.0261 0.0261 0.0261 0.0261 0.0262 0.0261 0.0261 0.0261 0.0261 0.0261 0.0261 0.0261 0.0261 0.0261 0.0261 0.0261 0.0261 0.0261 0.0261 0.0261 0.0261 0.0261 0.0261 0.0261 0.0261 0.0261 0.0261 0.0261 0.0261 0.0261 0.0261 0.0261 0.0261 0.0261 0.0261 0.0261 0.0261 0.0261 0.0261 0.0261 0.0261 0.0261 0.0261 0.0261 0.0261 0.0261 0.0261 0.0261 0.0261 0.0261 0.0261 0.0261 0.0261 0.0261 0.0261 0.0261 0.0261 0.0261 0.0261 0.0261 0.0261 0.0261 0.0261 0.0261 0.0261 0.0261 0.0261 0.0261 0.0261 0.0261 0.0261 0.0261 0.0261 0.0261 0.026 0.0261 0.0261 0.0261 0.0261 0.0261 0.0261 0.0261 0.0261 0.0261 0.0261 0.0261 0.0261 0.0261 0.0261 0.0261 0.0261 0.0261 0.0261 0.0261 0.0261 0.0261 0.0261 0.0261 0.0261 0.0261 0.0261 0.0261 0.0261 0.0261 0.0261 0.0261 0.0261 0.0261 0.0261 0.026 0.0261 0.0261 0.0261 0.0261 0.0261 0.0261 0.0261 0.0261 0.0261 0.0261 0.0261 0.0261 0.0261 0.0261 0.0261 0.0261 0.0261 0.0261 0.0261 0.0261 0.0261 0.0261 0.0261 0.0261 0.0261 0.0261 0.026 0.0261 0.0261 0.0261 0.0261 0.0261 0.0261 0.0261 0.0261 0.0261 0.0261 0.0261 0.0261 0.0261 0.0261 0.0261 0.0261 0.0261 0.0261 0.0261 0.0261 0.0261 0.0261 0.0261 0.026 0.0261 0.0261 0.0261 0.0261 0.0261 0.0261 0.0261 0.0261 0.0261 0.0261 0.0261 0.0261 0.0261 0.0261 0.0261 0.0261 0.0261 0.0261 0.0261 0.0261 0.0261 0.0261 0.0261 0.026 0.0261 0.0261 0.0261 0.0261 0.0261 0.0261 0.0261 0.0261 0.0261 0.0261 0.0261 0.0261 0.0261 0.0261 0.0261 0.0261 0.0261 0.0261 0.0261 0.0261 0.0261 0.0261 0.0261 0.0261 0.0261 0.0261 0.0261 0.026 0.0261 0.0261 0.0261 0.0261 0.0261 0.0261 0.0261 0.0261 0.0261 0.0261 0.0261 0.0261 0.0261 0.0261 0.0261 0.0261 0.0261 0.0261 0.0261 0.0261 0.0261 0.0261 0.0261 0.0261 0.0261 0.0261 0.0261 0.0261 0.0261 0.0261 0.0261 0.0261 0.0261 0.0261 0.0261 0.0261 0.0261 0.0261 0.026 0.0261 0.0261 0.0261 0.0261 0.0261 0.0261 0.0261 0.0261 0.0261 0.0261 0.0261 0.0261 0.0261 0.0261 0.0261 0.0261 0.0261 0.0261 0.0261 0.0261 0.0261 0.0261 0.0261 0.0261 0.0261 0.0261 0.0261 0.0261 0.0261 0.0261 0.0261 0.0261 0.0261 0.0261 0.0261 0.0261 0.0261 0.0261 0.0261 0.0261 0.0261 0.0261 0.0261 0.0261 0.0261 0.0261 0.0261 0.0261 0.0261 0.0261 0.0261 0.0262 0.0261 0.0261 0.0261 0.0261 0.0261 0.0261 0.0261 0.0261 0.0261 0.0261 0.0261 0.0261 0.0261 0.0261 0.0261 0.0261 0.0261 0.0261 0.0261 0.0261 0.0261 0.0261 0.0261 0.0261 0.0261 0.0261 0.0261 0.0261 0.0261 0.0262 0.0261 0.0261 0.0261 0.0261 0.0261 0.0261 0.0261h0.0612zm-0.0306-13.334h0.0084 0.0084 0.0083 0.0084 0.0084 0.0084 0.0084 0.0084 0.0084 0.0084 0.0084 0.0084 0.0084 0.0084 0.0084 0.0084 0.0084 0.0084 0.0083 0.0084 0.0084 0.0084 0.0084 0.0084 0.0084 0.0084 0.0084 0.0084 0.0084 0.0084 0.0084 0.0083 0.0084 0.0084 0.0084 0.0084 0.0084 0.0084 0.0084 0.0084 0.0084 0.0084 0.0083 0.0084 0.0084 0.0084 0.0084 0.0084 0.0084 0.0084 0.0084 0.0083 0.0084 0.0084 0.0084 0.0084 0.0084 0.0084 0.0084 0.0084 0.0083 0.0084 0.0084 0.0084 0.0084 0.0084 0.0084 0.0084 0.0083 0.0084 0.0084 0.0084 0.0084 0.0084 0.0084 0.0084 0.0083 0.0084 0.0084 0.0084 0.0084 0.0084 0.0084 0.0084 0.0083 0.0084 0.0084 0.0084 0.0084 0.0084 0.0084 0.0083 0.0084 0.0084 0.0084 0.0084 0.0084 0.0084 0.0083 0.0084 0.0084 0.0084 0.0084 0.0084 0.0083 0.0084 0.0084 0.0084 0.0084 0.0084 0.0084 0.0083 0.0084 0.0084 0.0084 0.0084 0.0084 0.0084 0.0083 0.0084 0.0084 0.0084 0.0084 0.0084 0.0083 0.0084 0.0084 0.0084 0.0084 0.0084 0.0084 0.0083 0.0084 0.0084 0.0084 0.0084 0.0084 0.0083 0.0084 0.0084 0.0084 0.0084 0.0084 0.0083 0.0084 0.0084 0.0084 0.0084 0.0084 0.0084 0.0083 0.0084 0.0084 0.0084 0.0084 0.0084 0.0083 0.0084 0.0084 0.0084 0.0084 0.0084 0.0083 0.0084 0.0084 0.0084 0.0084 0.0084 0.0084 0.0083 0.0084 0.0084 0.0084 0.0084 0.0084 0.0083 0.0084 0.0084 0.0084 0.0084 0.0084 0.0084 0.0083 0.0084 0.0084 0.0084 0.0084 0.0084 0.0083 0.0084 0.0084 0.0084 0.0084 0.0084 0.0084 0.0083 0.0084 0.0084 0.0084 0.0084 0.0084 0.0084 0.0083 0.0084 0.0084 0.0084 0.0084 0.0084 0.0084 0.0083 0.0084 0.0084 0.0084 0.0084 0.0084 0.0084 0.0083 0.0084 0.0084 0.0084 0.0084 0.0084 0.0084 0.0084 0.0083 0.0084 0.0084 0.0084 0.0084 0.0084 0.0084 0.0084 0.0083 0.0084 0.0084 0.0084 0.0084 0.0084 0.0084 0.0084 0.0083 0.0084 0.0084 0.0084 0.0084 0.0084 0.0084 0.0084 0.0084 0.0084 0.0083 0.0084 0.0084 0.0084 0.0084 0.0084 0.0084 0.0084 0.0084 0.0084 0.0083 0.0084 0.0084 0.0084 0.0084 0.0084 0.0084 0.0084 0.0084 0.0084 0.0084 0.0084 0.0083 0.0084 0.0084 0.0084 0.0084 0.0084 0.0084 0.0084 0.0084 0.0084 0.0084 0.0084 0.0084 0.0084 0.0083 0.0084 0.0084 0.0084 0.0084 0.0084 0.0084 0.0084 0.0084 0.0084 0.0084 0.0084 0.0084 0.0084 0.0084 0.0084 0.0084 0.0084 0.0084 0.0084 0.0084 0.0084 0.0084 0.0084 0.0084 0.0084 0.0083 0.0084 0.0084 0.0084 0.0084 0.0084 0.0084 0.0084 0.0084 0.0084 0.0084 0.0084 0.0084 0.0084 0.0084 0.0084 0.0084 0.0084 0.0084 0.0085 0.0084 0.0084 0.0084 0.0084 0.0084 0.0084 0.0084 0.0084 0.0084 0.0084 0.0084 0.0084 0.0084 0.0084 0.0084 0.0084 0.0084 0.0084 0.0084 0.0084 0.0084 0.0084 0.0084 0.0085 0.0084 0.0084 0.0084 0.0084 0.0084 0.0084 0.0084 0.0084 0.0084 0.0084 0.0084 0.0084 0.0085 0.0084 0.0084 0.0084 0.0084 0.0084 0.0084 0.0084 0.0084 0.0085 0.0084 0.0084 0.0084 0.0084 0.0084 0.0084 0.0084 0.0085 0.0084 0.0084 0.0084 0.0084 0.0084 0.0084 0.0085 0.0084 0.0084 0.0084 0.0084 0.0084 0.0085 0.0084 0.0084 0.0084 0.0084 0.0084 0.0085 0.0084 0.0084 0.0084 0.0084 0.0085 0.0084 0.0084 0.0084 0.0084 0.0085 0.0084 0.0084 0.0084 0.0084 0.0085 0.0084 0.0084 0.0084 0.0085 0.0084 0.0084 0.0084 0.0085 0.0084 0.0084 0.0084 0.0085 0.0084 0.0084 0.0084 0.0085 0.0084 0.0084 0.0085 0.0084 0.0084 0.0084 0.0085 0.0084 0.0084 0.0085 0.0084 0.0084 0.0085 0.0084 0.0084 0.0084 0.0085 0.0084 0.0084 0.0085 0.0084 0.0084 0.0085 0.0084 0.0085 0.0084 0.0084 0.0085 0.0084 0.0084 0.0085 0.0084 0.0084 0.0085 0.0084 0.0085 0.0084 0.0084 0.0085 0.0084 0.0085 0.0084 0.0084 0.0085 0.0084 0.0085 0.0084 0.0085 0.0084 0.0084 0.0085 0.0084 0.0085 0.0084 0.0085 0.0084 0.0085 0.0084 0.0084 0.0085 0.0084 0.0085 0.0084 0.0085 0.0084 0.0085 0.0084 0.0085 0.0084 0.0085 0.0084 0.0085 0.0084 0.0085 0.0084 0.0085v-0.0612h-0.0085-0.0084-0.0085-0.0084-0.0085-0.0084-0.0085-0.0084-0.0085-0.0084-0.0085-0.0084-0.0085-0.0084-0.0085-0.0084-0.0085-0.0084-0.0084-0.0085-0.0084-0.0085-0.0084-0.0085-0.0084-0.0085-0.0084-0.0084-0.0085-0.0084-0.0085-0.0084-0.0085-0.0084-0.0084-0.0085-0.0084-0.0085-0.0084-0.0084-0.0085-0.0084-0.0085-0.0084-0.0084-0.0085-0.0084-0.0084-0.0085-0.0084-0.0084-0.0085-0.0084-0.0085-0.0084-0.0084-0.0085-0.0084-0.0084-0.0085-0.0084-0.0084-0.0084-0.0085-0.0084-0.0084-0.0085-0.0084-0.0084-0.0085-0.0084-0.0084-0.0084-0.0085-0.0084-0.0084-0.0085-0.0084-0.0084-0.0084-0.0085-0.0084-0.0084-0.0084-0.0085-0.0084-0.0084-0.0084-0.0085-0.0084-0.0084-0.0084-0.0085-0.0084-0.0084-0.0084-0.0084-0.0085-0.0084-0.0084-0.0084-0.0084-0.0085-0.0084-0.0084-0.0084-0.0084-0.0085-0.0084-0.0084-0.0084-0.0084-0.0084-0.0085-0.0084-0.0084-0.0084-0.0084-0.0084-0.0085-0.0084-0.0084-0.0084-0.0084-0.0084-0.0084-0.0085-0.0084-0.0084-0.0084-0.0084-0.0084-0.0084-0.0084-0.0085-0.0084-0.0084-0.0084-0.0084-0.0084-0.0084-0.0084-0.0084-0.0085-0.0084-0.0084-0.0084-0.0084-0.0084-0.0084-0.0084-0.0084-0.0084-0.0084-0.0084-0.0084-0.0085-0.0084-0.0084-0.0084-0.0084-0.0084-0.0084-0.0084-0.0084-0.0084-0.0084-0.0084-0.0084-0.0084-0.0084-0.0084-0.0084-0.0084-0.0084-0.0084-0.0084-0.0084-0.0084-0.0084-0.0085-0.0084-0.0084-0.0084-0.0084-0.0084-0.0084-0.0084-0.0084-0.0084-0.0084-0.0084-0.0084-0.0084-0.0084-0.0084-0.0084-0.0084-0.0084-0.0083-0.0084-0.0084-0.0084-0.0084-0.0084-0.0084-0.0084-0.0084-0.0084-0.0084-0.0084-0.0084-0.0084-0.0084-0.0084-0.0084-0.0084-0.0084-0.0084-0.0084-0.0084-0.0084-0.0084-0.0084-0.0084-0.0083-0.0084-0.0084-0.0084-0.0084-0.0084-0.0084-0.0084-0.0084-0.0084-0.0084-0.0084-0.0084-0.0084-0.0083-0.0084-0.0084-0.0084-0.0084-0.0084-0.0084-0.0084-0.0084-0.0084-0.0084-0.0084-0.0083-0.0084-0.0084-0.0084-0.0084-0.0084-0.0084-0.0084-0.0084-0.0084-0.0083-0.0084-0.0084-0.0084-0.0084-0.0084-0.0084-0.0084-0.0084-0.0084-0.0083-0.0084-0.0084-0.0084-0.0084-0.0084-0.0084-0.0084-0.0083-0.0084-0.0084-0.0084-0.0084-0.0084-0.0084-0.0084-0.0083-0.0084-0.0084-0.0084-0.0084-0.0084-0.0084-0.0084-0.0083-0.0084-0.0084-0.0084-0.0084-0.0084-0.0084-0.0083-0.0084-0.0084-0.0084-0.0084-0.0084-0.0084-0.0083-0.0084-0.0084-0.0084-0.0084-0.0084-0.0084-0.0083-0.0084-0.0084-0.0084-0.0084-0.0084-0.0084-0.0083-0.0084-0.0084-0.0084-0.0084-0.0084-0.0083-0.0084-0.0084-0.0084-0.0084-0.0084-0.0084-0.0083-0.0084-0.0084-0.0084-0.0084-0.0084-0.0083-0.0084-0.0084-0.0084-0.0084-0.0084-0.0084-0.0083-0.0084-0.0084-0.0084-0.0084-0.0084-0.0083-0.0084-0.0084-0.0084-0.0084-0.0084-0.0083-0.0084-0.0084-0.0084-0.0084-0.0084-0.0084-0.0083-0.0084-0.0084-0.0084-0.0084-0.0084-0.0083-0.0084-0.0084-0.0084-0.0084-0.0084-0.0083-0.0084-0.0084-0.0084-0.0084-0.0084-0.0084-0.0083-0.0084-0.0084-0.0084-0.0084-0.0084-0.0083-0.0084-0.0084-0.0084-0.0084-0.0084-0.0084-0.0083-0.0084-0.0084-0.0084-0.0084-0.0084-0.0084-0.0083-0.0084-0.0084-0.0084-0.0084-0.0084-0.0083-0.0084-0.0084-0.0084-0.0084-0.0084-0.0084-0.0083-0.0084-0.0084-0.0084-0.0084-0.0084-0.0084-0.0083-0.0084-0.0084-0.0084-0.0084-0.0084-0.0084-0.0084-0.0083-0.0084-0.0084-0.0084-0.0084-0.0084-0.0084-0.0084-0.0083-0.0084-0.0084-0.0084-0.0084-0.0084-0.0084-0.0084-0.0083-0.0084-0.0084-0.0084-0.0084-0.0084-0.0084-0.0084-0.0084-0.0083-0.0084-0.0084-0.0084-0.0084-0.0084-0.0084-0.0084-0.0084-0.0083-0.0084-0.0084-0.0084-0.0084-0.0084-0.0084-0.0084-0.0084-0.0084-0.0084-0.0083-0.0084-0.0084-0.0084-0.0084-0.0084-0.0084-0.0084-0.0084-0.0084-0.0084-0.0084-0.0084-0.0083-0.0084-0.0084-0.0084-0.0084-0.0084-0.0084-0.0084-0.0084-0.0084-0.0084-0.0084-0.0084-0.0084-0.0084-0.0084-0.0083-0.0084-0.0084v0.0612zm4.271-0.0306v0.0035 0.0036 0.0035 0.0036 0.0035 0.0035 0.0036 0.0035 0.0035 0.0036 0.0035 0.0035 0.0036 0.0035 0.0035 0.0036 0.0035 0.0035 0.0036 0.0035 0.0035 0.0036 0.0035 0.0035 0.0036 0.0035 0.0035 0.0035 0.0036 0.0035 0.0035 0.0036 0.0035 0.0035 0.0036 0.0035 0.0035 0.0035 0.0036 0.0035 0.0035 0.0036 0.0035 0.0035 0.0035 0.0036 0.0035 0.0035 0.0036 0.0035 0.0035 0.0035 0.0036 0.0035 0.0035 0.0035 0.0036 0.0035 0.0035 0.0035 0.0036 0.0035 0.0035 0.0035 0.0036 0.0035 0.0035 0.0035 0.0036 0.0035 0.0035 0.0035 0.0035 0.0036 0.0035 0.0035 0.0035 0.0036 0.0035 0.0035 0.0035 0.0035 0.0036 0.0035 0.0035 0.0035 0.0035 0.0036 0.0035 0.0035 0.0035 0.0035 0.0036 0.0035 0.0035 0.0035 0.0035 0.0036 0.0035 0.0035 0.0035 0.0035 0.0036 0.0035 0.0035 0.0035 0.0035 0.0035 0.0036 0.0035 0.0035 0.0035 0.0035 0.0035 0.0035 0.0036 0.0035 0.0035 0.0035 0.0035 0.0035 0.0036 0.0035 0.0035 0.0035 0.0035 0.0035 0.0035 0.0036 0.0035 0.0035 0.0035 0.0035 0.0035 0.0035 0.0035 0.0036 0.0035 0.0035 0.0035 0.0035 0.0035 0.0035 0.0035 0.0035 0.0036 0.0035 0.0035 0.0035 0.0035 0.0035 0.0035 0.0035 0.0035 0.0036 0.0035 0.0035 0.0035 0.0035 0.0035 0.0035 0.0035 0.0035 0.0035 0.0035 0.0036 0.0035 0.0035 0.0035 0.0035 0.0035 0.0035 0.0035 0.0035 0.0035 0.0035 0.0035 0.0035 0.0035 0.0036 0.0035 0.0035 0.0035 0.0035 0.0035 0.0035 0.0035 0.0035 0.0035 0.0035 0.0035 0.0035 0.0035 0.0035 0.0035 0.0035 0.0035 0.0035 0.0035 0.0035 0.0036 0.0035 0.0035 0.0035 0.0035 0.0035 0.0035 0.0035 0.0035 0.0035 0.0035 0.0035 0.0035 0.0035 0.0035 0.0035 0.0035 0.0035 0.0035 0.0035 0.0035 0.0035 0.0035 0.0035 0.0035 0.0035 0.0035 0.0035 0.0035 0.0035 0.0035 0.0035 0.0035 0.0035 0.0035 0.0035 0.0035 0.0035 0.0035 0.0035 0.0035 0.0035 0.0035 0.0035 0.0035 0.0035 0.0035 0.0035 0.0035 0.0035 0.0035 0.0035 0.0035 0.0035 0.0035 0.0035 0.0035 0.0035 0.0035 0.0035 0.0035 0.0035 0.0035 0.0034 0.0035 0.0035 0.0035 0.0035 0.0035 0.0035 0.0035 0.0035 0.0035 0.0035 0.0035 0.0035 0.0035 0.0035 0.0035 0.0035 0.0035 0.0035 0.0035 0.0035 0.0035 0.0034 0.0035 0.0035 0.0035 0.0035 0.0035 0.0035 0.0035 0.0035 0.0035 0.0035 0.0035 0.0035 0.0035 0.0035 0.0035 0.0034 0.0035 0.0035 0.0035 0.0035 0.0035 0.0035 0.0035 0.0035 0.0035 0.0035 0.0035 0.0035 0.0035 0.0034 0.0035 0.0035 0.0035 0.0035 0.0035 0.0035 0.0035 0.0035 0.0035 0.0035 0.0034 0.0035 0.0035 0.0035 0.0035 0.0035 0.0035 0.0035 0.0035 0.0035 0.0035 0.0034 0.0035 0.0035 0.0035 0.0035 0.0035 0.0035 0.0035 0.0035 0.0035 0.0034 0.0035 0.0035 0.0035 0.0035 0.0035 0.0035 0.0035 0.0035 0.0035 0.0034 0.0035 0.0035 0.0035 0.0035 0.0035 0.0035 0.0035 0.0035 0.0034 0.0035 0.0035 0.0035 0.0035 0.0035 0.0035 0.0035 0.0034 0.0035 0.0035 0.0035 0.0035 0.0035 0.0035 0.0035 0.0034 0.0035 0.0035 0.0035 0.0035 0.0035 0.0035 0.0035 0.0034 0.0035 0.0035 0.0035 0.0035 0.0035 0.0035 0.0035 0.0034 0.0035 0.0035 0.0035 0.0035 0.0035 0.0035 0.0035 0.0034 0.0035 0.0035 0.0035 0.0035 0.0035 0.0035 0.0034 0.0035 0.0035 0.0035 0.0035 0.0035 0.0035 0.0034 0.0035 0.0035 0.0035 0.0035 0.0035 0.0035 0.0034 0.0035 0.0035 0.0035 0.0035 0.0035 0.0035 0.0034 0.0035 0.0035 0.0035 0.0035 0.0035 0.0035 0.0034 0.0035 0.0035 0.0035 0.0035 0.0035 0.0035 0.0034 0.0035 0.0035 0.0035 0.0035 0.0035 0.0034 0.0035 0.0035 0.0035 0.0035 0.0035 0.0035 0.0034 0.0035 0.0035 0.0035 0.0035 0.0035 0.0035 0.0034 0.0035 0.0035 0.0035 0.0035 0.0035 0.0034 0.0035 0.0035 0.0035 0.0035 0.0035 0.0035 0.0034 0.0035 0.0035 0.0035 0.0035 0.0035 0.0034 0.0035 0.0035 0.0035 0.0035 0.0035 0.0035 0.0034 0.0035 0.0035 0.0035 0.0035 0.0035 0.0034 0.0035 0.0035 0.0035 0.0035 0.0035 0.0034 0.0035 0.0035 0.0035 0.0035 0.0035h0.0612v-0.0035-0.0035-0.0035-0.0035-0.0035-0.0034-0.0035-0.0035-0.0035-0.0035-0.0035-0.0034-0.0035-0.0035-0.0035-0.0035-0.0035-0.0034-0.0035-0.0035-0.0035-0.0035-0.0035-0.0035-0.0034-0.0035-0.0035-0.0035-0.0035-0.0035-0.0034-0.0035-0.0035-0.0035-0.0035-0.0035-0.0035-0.0034-0.0035-0.0035-0.0035-0.0035-0.0035-0.0034-0.0035-0.0035-0.0035-0.0035-0.0035-0.0035-0.0034-0.0035-0.0035-0.0035-0.0035-0.0035-0.0035-0.0034-0.0035-0.0035-0.0035-0.0035-0.0035-0.0034-0.0035-0.0035-0.0035-0.0035-0.0035-0.0035-0.0034-0.0035-0.0035-0.0035-0.0035-0.0035-0.0035-0.0034-0.0035-0.0035-0.0035-0.0035-0.0035-0.0035-0.0034-0.0035-0.0035-0.0035-0.0035-0.0035-0.0035-0.0034-0.0035-0.0035-0.0035-0.0035-0.0035-0.0035-0.0034-0.0035-0.0035-0.0035-0.0035-0.0035-0.0035-0.0034-0.0035-0.0035-0.0035-0.0035-0.0035-0.0035-0.0035-0.0034-0.0035-0.0035-0.0035-0.0035-0.0035-0.0035-0.0035-0.0034-0.0035-0.0035-0.0035-0.0035-0.0035-0.0035-0.0035-0.0034-0.0035-0.0035-0.0035-0.0035-0.0035-0.0035-0.0035-0.0034-0.0035-0.0035-0.0035-0.0035-0.0035-0.0035-0.0035-0.0034-0.0035-0.0035-0.0035-0.0035-0.0035-0.0035-0.0035-0.0035-0.0034-0.0035-0.0035-0.0035-0.0035-0.0035-0.0035-0.0035-0.0035-0.0035-0.0034-0.0035-0.0035-0.0035-0.0035-0.0035-0.0035-0.0035-0.0035-0.0035-0.0034-0.0035-0.0035-0.0035-0.0035-0.0035-0.0035-0.0035-0.0035-0.0035-0.0035-0.0034-0.0035-0.0035-0.0035-0.0035-0.0035-0.0035-0.0035-0.0035-0.0035-0.0035-0.0034-0.0035-0.0035-0.0035-0.0035-0.0035-0.0035-0.0035-0.0035-0.0035-0.0035-0.0035-0.0035-0.0035-0.0034-0.0035-0.0035-0.0035-0.0035-0.0035-0.0035-0.0035-0.0035-0.0035-0.0035-0.0035-0.0035-0.0035-0.0035-0.0035-0.0034-0.0035-0.0035-0.0035-0.0035-0.0035-0.0035-0.0035-0.0035-0.0035-0.0035-0.0035-0.0035-0.0035-0.0035-0.0035-0.0035-0.0035-0.0035-0.0035-0.0035-0.0035-0.0034-0.0035-0.0035-0.0035-0.0035-0.0035-0.0035-0.0035-0.0035-0.0035-0.0035-0.0035-0.0035-0.0035-0.0035-0.0035-0.0035-0.0035-0.0035-0.0035-0.0035-0.0035-0.0035-0.0035-0.0035-0.0035-0.0035-0.0035-0.0035-0.0035-0.0035-0.0035-0.0035-0.0035-0.0035-0.0035-0.0035-0.0035-0.0035-0.0035-0.0035-0.0035-0.0035-0.0035-0.0035-0.0035-0.0035-0.0035-0.0035-0.0035-0.0035-0.0035-0.0035-0.0035-0.0035-0.0035-0.0035-0.0035-0.0035-0.0035-0.0035-0.0035-0.0035-0.0036-0.0035-0.0035-0.0035-0.0035-0.0035-0.0035-0.0035-0.0035-0.0035-0.0035-0.0035-0.0035-0.0035-0.0035-0.0035-0.0035-0.0035-0.0035-0.0035-0.0035-0.0036-0.0035-0.0035-0.0035-0.0035-0.0035-0.0035-0.0035-0.0035-0.0035-0.0035-0.0035-0.0035-0.0035-0.0036-0.0035-0.0035-0.0035-0.0035-0.0035-0.0035-0.0035-0.0035-0.0035-0.0035-0.0036-0.0035-0.0035-0.0035-0.0035-0.0035-0.0035-0.0035-0.0035-0.0036-0.0035-0.0035-0.0035-0.0035-0.0035-0.0035-0.0035-0.0035-0.0036-0.0035-0.0035-0.0035-0.0035-0.0035-0.0035-0.0035-0.0036-0.0035-0.0035-0.0035-0.0035-0.0035-0.0035-0.0036-0.0035-0.0035-0.0035-0.0035-0.0035-0.0036-0.0035-0.0035-0.0035-0.0035-0.0035-0.0035-0.0036-0.0035-0.0035-0.0035-0.0035-0.0035-0.0036-0.0035-0.0035-0.0035-0.0035-0.0036-0.0035-0.0035-0.0035-0.0035-0.0036-0.0035-0.0035-0.0035-0.0035-0.0036-0.0035-0.0035-0.0035-0.0035-0.0036-0.0035-0.0035-0.0035-0.0035-0.0036-0.0035-0.0035-0.0035-0.0036-0.0035-0.0035-0.0035-0.0035-0.0036-0.0035-0.0035-0.0035-0.0036-0.0035-0.0035-0.0035-0.0036-0.0035-0.0035-0.0035-0.0036-0.0035-0.0035-0.0035-0.0036-0.0035-0.0035-0.0035-0.0036-0.0035-0.0035-0.0036-0.0035-0.0035-0.0035-0.0036-0.0035-0.0035-0.0036-0.0035-0.0035-0.0035-0.0036-0.0035-0.0035-0.0036-0.0035-0.0035-0.0036-0.0035-0.0035-0.0035-0.0036-0.0035-0.0035-0.0036-0.0035-0.0035-0.0036-0.0035-0.0035-0.0036-0.0035-0.0035-0.0036-0.0035-0.0035-0.0036-0.0035-0.0035-0.0036-0.0035-0.0035-0.0036-0.0035-0.0036-0.0035h-0.0612zm0.0185 1.821c0.0102 0.0044 0.0231 0.0103 0.0347 0.0151l0.0237-0.0564c-0.0118-5e-3 -0.0217-0.0095-0.0342-0.0149l-0.0242 0.0562zm0.0712 0.0051c0.0302-0.041 0.0622-0.083 0.0926-0.125l-0.0496-0.0359c-0.0304 0.042-0.0611 0.0821-0.0923 0.1245l0.0493 0.0364zm0.0927-0.1251c0.4298-0.597 0.922-1.1239 1.5748-1.4798l-0.0293-0.0537c-0.664 0.362-1.1626 0.8969-1.5952 1.4978l0.0497 0.0357zm1.5748-1.4798c0.7293-0.398 1.5178-0.532 2.3403-0.5082l0.0017-0.0611c-0.8304-0.0241-1.6303 0.1111-2.3713 0.5156l0.0293 0.0537zm2.3403-0.5082c0.8909 0.026 1.7344 0.2264 2.494 0.7043l0.0326-0.0518c-0.7709-0.4851-1.6258-0.6875-2.5249-0.7136l-0.0017 0.0611zm2.494 0.7043c0.9737 0.6128 1.5678 1.5095 1.9161 2.5878l0.0583-0.0188c-0.3518-1.0888-0.9533-1.9988-1.9418-2.6208l-0.0326 0.0518zm1.9161 2.5878c0.2717 0.8405 0.3609 1.7082 0.3618 2.5884l0.0613-1e-4c-1e-3 -0.8841-0.0906-1.7587-0.3648-2.6071l-0.0583 0.0188zm0.3618 2.5884c0.0022 2.5386 1e-3 5.0775 7e-4 7.6162h0.0612c3e-4 -2.5386 0.0015-5.0776-6e-4 -7.6163l-0.0613 1e-4zm7e-4 7.6162c0 0.0486-0.0045 0.096-0.0077 0.155l0.0611 0.0033c3e-3 -0.0558 0.0078-0.1076 0.0078-0.1583h-0.0612z" fill="#070707" mask="url(#a)"/>
<path d="m15.611 29.671h-4.2501v-13.347h4.2501v13.347z" fill="#070707" stroke="#070707" stroke-width=".030607"/>
<path d="m13.669 9.6716c0.6701-9.2e-4 1.2414 0.23685 1.6458 0.64324 0.4043 0.4064 0.6426 0.9823 0.6449 1.6591 0.0021 0.6694-0.2374 1.2403-0.6475 1.6438s-0.9916 0.6406-1.6749 0.6409c-1.3325 9e-4 -2.2819-0.9509-2.2843-2.29-0.0024-1.3398 0.9605-2.2952 2.316-2.297z" fill="#070707" stroke="#070707" stroke-width=".030607"/>
</svg>
