<svg width="31" height="30" viewBox="0 0 31 30" fill="none" xmlns="http://www.w3.org/2000/svg">
<circle cx="15" cy="15" r="15" fill="#032539"/>
<g clip-path="url(#clip0)">
<path d="M20.4469 16.1425C20.2044 15.8362 20.2738 15.7 20.4469 15.4262C20.45 15.4231 22.4519 12.6569 22.6581 11.7187L22.6594 11.7181C22.7619 11.3762 22.6594 11.125 22.1638 11.125H20.5238C20.1062 11.125 19.9137 11.3406 19.8106 11.5819C19.8106 11.5819 18.9756 13.5806 17.7944 14.8762C17.4131 15.2506 17.2369 15.3706 17.0288 15.3706C16.9263 15.3706 16.7669 15.2506 16.7669 14.9088V11.7181C16.7669 11.3081 16.65 11.125 16.3044 11.125H13.7256C13.4638 11.125 13.3081 11.3163 13.3081 11.4944C13.3081 11.8831 13.8988 11.9725 13.96 13.0662V15.4394C13.96 15.9594 13.8656 16.055 13.6562 16.055C13.0988 16.055 11.7456 14.0481 10.9437 11.7512C10.7819 11.3056 10.6237 11.1256 10.2031 11.1256H8.5625C8.09437 11.1256 8 11.3412 8 11.5825C8 12.0087 8.5575 14.1281 10.5925 16.9281C11.9488 18.8394 13.8588 19.875 15.5963 19.875C16.6406 19.875 16.7681 19.645 16.7681 19.2494C16.7681 17.4231 16.6737 17.2506 17.1969 17.2506C17.4394 17.2506 17.8569 17.3706 18.8319 18.2925C19.9462 19.3856 20.1294 19.875 20.7531 19.875H22.3931C22.8606 19.875 23.0975 19.645 22.9613 19.1912C22.6494 18.2369 20.5419 16.2737 20.4469 16.1425Z" fill="white"/>
</g>
<defs>
<clipPath id="clip0">
<rect width="15" height="15" fill="white" transform="translate(8 8)"/>
</clipPath>
</defs>
</svg>
