<?xml version="1.0" encoding="utf-8"?><svg viewBox="0 0 90 90" xmlns="http://www.w3.org/2000/svg" xmlns:xlink="http://www.w3.org/1999/xlink"><style>:root>svg{display:none}:root>svg:target{display:block}</style><svg fill="none" viewBox="0 0 90 90" id="AE" xmlns="http://www.w3.org/2000/svg"><path d="M4.07 4.453h81.76v81.005H4.07V4.453z" fill="url(#apaint0_radial_167_586)"/><path d="M4.07 4.454h81.76v81.005H4.07V4.454zM.355 89.242h89.21V.67H.354v88.572zm63.11-45.878c1.894 0 2.573 0 2.752-.072 0-.273.071-.455.071-.637 0-2.038-.964-5.821-4.823-5.821-3.572 0-5.09 3.183-5.466 6.549h7.467v-.019zm-7.537 5.185c.071 5.112 2.447 8.55 8.11 8.55 2.197 0 4.09-.31 6.055-1.165.268-.109.447-.072.447.273v4.73c0 .382-.107.564-.375.764-1.965.982-4.43 1.437-7.467 1.437-9.807 0-13.487-7.386-13.487-15.59 0-8.931 4.537-16.244 12.522-16.244 8.11 0 10.933 6.93 10.933 12.57 0 1.819-.108 3.292-.304 4.02-.072.31-.179.418-.482.491-.75.11-2.93.273-6.199.273h-9.735v-.11h-.018zm-19.936-3.857c-1.036-4.202-3.573-13.352-4.501-17.79h-.072c-.786 4.42-2.822 11.915-4.34 17.79h8.913zm-10.432 6.13l-2.93 11.316c-.071.309-.178.418-.553.418h-5.485c-.375 0-.446-.11-.375-.564L26.775 24.41c.178-.673.303-1.218.375-3.11 0-.273.107-.382.303-.382h7.807c.268 0 .375.072.446.382l11.808 40.766c.071.31 0 .491-.304.491h-6.127c-.303 0-.482-.11-.554-.382l-3.054-11.351H25.56z" fill="#D8A1FF"/><defs><radialGradient id="apaint0_radial_167_586" cx="0" cy="0" r="1" gradientUnits="userSpaceOnUse" gradientTransform="matrix(62.1407 0 0 61.2673 31.023 22.614)"><stop stop-color="#442F55" stop-opacity=".98"/><stop offset="1" stop-color="#12002C"/></radialGradient></defs></svg><svg fill="none" viewBox="0 0 90 90" id="AI" xmlns="http://www.w3.org/2000/svg"><path d="M4.003 4.453h81.76v81.005H4.004V4.453z" fill="url(#bpaint0_radial_167_574)"/><path d="M4.003 4.454h81.76v81.005H4.004V4.454zM.288 89.242h89.21V.67H.287v88.572zm58.43-56.992c0-.31.108-.455.447-.455h5.842c.303 0 .446.109.446.455v29.87c0 .309-.071.454-.446.454h-5.77c-.375 0-.483-.182-.483-.491V32.25h-.035zm-.41-8.605c0-2.42 1.68-3.856 3.787-3.856 2.269 0 3.787 1.546 3.787 3.856 0 2.492-1.59 3.857-3.859 3.857-2.143.018-3.715-1.346-3.715-3.857zm-16.72 21.047c-1.036-4.202-3.501-13.352-4.43-17.79h-.072c-.786 4.42-2.75 11.915-4.305 17.79h8.807zm-10.325 6.13l-2.93 11.352c-.071.31-.178.382-.553.382h-5.467c-.375 0-.446-.11-.375-.564l10.557-37.62c.18-.672.304-1.29.376-3.146 0-.273.107-.382.303-.382h7.806c.269 0 .376.073.447.382l11.826 40.839c.071.31 0 .491-.304.491h-6.163c-.304 0-.482-.073-.554-.346l-3.054-11.387H31.263z" fill="#FF7F18"/><defs><radialGradient id="bpaint0_radial_167_574" cx="0" cy="0" r="1" gradientUnits="userSpaceOnUse" gradientTransform="matrix(62.1406 0 0 61.2673 30.958 22.63)"><stop stop-color="#423325" stop-opacity=".98"/><stop offset="1" stop-color="#1C0A00"/></radialGradient></defs></svg><svg fill="none" viewBox="0 0 90 90" id="PS" xmlns="http://www.w3.org/2000/svg"><path d="M3.934 4.426H85.6V85.28H3.934V4.426z" fill="url(#cpaint0_radial_167_561)"/><path d="M3.934 4.426H85.6V85.28H3.934V4.426zM.221 89.06h89.073V.646H.221V89.06zM60.288 36.93c-2.928 0-3.927 1.508-3.927 2.762 0 1.363.66 2.307 4.605 4.379 5.82 2.87 7.64 5.632 7.64 9.666 0 6.05-4.534 9.303-10.657 9.303-3.23 0-6.015-.672-7.604-1.617-.268-.11-.303-.31-.303-.6v-5.578c0-.382.178-.49.446-.309a13.66 13.66 0 007.461 2.235c2.928 0 4.16-1.254 4.16-2.944 0-1.362-.858-2.561-4.606-4.542-5.266-2.562-7.462-5.16-7.462-9.52 0-4.87 3.75-8.922 10.247-8.922 3.195 0 5.426.49 6.64 1.054.303.182.375.49.375.763v5.178c0 .31-.179.49-.553.382-1.643-1.054-4.053-1.69-6.462-1.69zM28.37 41.42c.857.073 1.518.073 3 .073 4.337 0 8.424-1.545 8.424-7.559 0-4.797-2.927-7.213-7.872-7.213-1.481 0-2.891.073-3.57.109l.018 14.59zm-6.622-20.06c0-.272.517-.454.82-.454 2.375-.108 5.91-.181 9.569-.181 10.281 0 14.298 5.741 14.298 13.064 0 9.593-6.837 13.718-15.227 13.718-1.41 0-1.892-.073-2.891-.073v14.5c0 .308-.108.454-.447.454h-5.676c-.303 0-.446-.11-.446-.455V21.36z" fill="#31C5F0"/><defs><radialGradient id="cpaint0_radial_167_561" cx="0" cy="0" r="1" gradientUnits="userSpaceOnUse" gradientTransform="matrix(62.0565 0 0 61.1565 30.838 22.566)"><stop stop-color="#34364E" stop-opacity=".98"/><stop offset="1" stop-color="#0C0824"/></radialGradient></defs></svg><svg fill="none" viewBox="0 0 22 20" id="Star" xmlns="http://www.w3.org/2000/svg"><path d="M9.793.86c.3-.92 1.602-.92 1.902 0l1.751 5.374a1 1 0 00.95.69h5.662c.969 0 1.371 1.241.586 1.81l-4.575 3.315a1 1 0 00-.364 1.12l1.749 5.366c.3.92-.753 1.688-1.538 1.12l-4.585-3.323a1 1 0 00-1.174 0l-4.585 3.322c-.784.569-1.838-.198-1.538-1.12l1.749-5.366a1 1 0 00-.364-1.12L.844 8.735c-.785-.569-.383-1.81.587-1.81h5.66a1 1 0 00.951-.69L9.793.86z" fill="#070707"/></svg><svg fill="none" viewBox="0 0 21 21" id="Star-grey" xmlns="http://www.w3.org/2000/svg"><path d="M9.474 1.213c.3-.92 1.601-.92 1.901 0l1.751 5.374a1 1 0 00.951.69h5.661c.97 0 1.372 1.242.587 1.81l-4.575 3.315a1 1 0 00-.364 1.12l1.748 5.366c.3.921-.753 1.688-1.537 1.12l-4.586-3.322a1 1 0 00-1.173 0l-4.586 3.322c-.784.568-1.837-.199-1.537-1.12l1.748-5.366a1 1 0 00-.364-1.12L.524 9.087c-.785-.568-.382-1.81.587-1.81h5.66a1 1 0 00.952-.69l1.75-5.374z" fill="#E5E5E5"/></svg><svg fill="none" viewBox="0 0 41 40" id="behance" xmlns="http://www.w3.org/2000/svg"><g clip-path="url(#fclip0_167_538)" fill="#070707" stroke="#070707" stroke-width=".5"><path d="M34.32 0H5.96C2.72 0 .085 2.628.085 5.86v28.28C.085 37.372 2.72 40 5.96 40h28.36c3.24 0 5.876-2.629 5.876-5.86V5.86C40.196 2.627 37.56 0 34.32 0zm3.526 34.14a3.525 3.525 0 01-3.526 3.516H5.96a3.525 3.525 0 01-3.525-3.515V5.859A3.525 3.525 0 015.96 2.344h28.36a3.525 3.525 0 013.526 3.515v28.282z"/><path d="M18.965 16.484c0-2.585-2.108-4.687-4.7-4.687H7.214v16.406h7.05c2.593 0 4.701-2.102 4.701-4.687A4.67 4.67 0 0017.37 20a4.67 4.67 0 001.596-3.516zm-2.35 7.032a2.35 2.35 0 01-2.35 2.343h-4.7v-4.687h4.7a2.35 2.35 0 012.35 2.344zm-7.05-4.688v-4.687h4.7a2.35 2.35 0 012.35 2.343 2.35 2.35 0 01-2.35 2.344h-4.7zM27.191 16.484c-3.24 0-5.876 2.629-5.876 5.86 0 3.23 2.636 5.86 5.876 5.86a5.9 5.9 0 005.089-2.93l-2.035-1.173a3.53 3.53 0 01-6.378-.585h9.2v-1.172c0-3.231-2.636-5.86-5.876-5.86zm-3.324 4.688a3.53 3.53 0 016.648 0h-6.648zM22.49 11.797h9.402v2.344H22.49v-2.344z"/></g><defs><clipPath id="fclip0_167_538"><path fill="#fff" transform="translate(.085)" d="M0 0h40.111v40H0z"/></clipPath></defs></svg><svg fill="none" viewBox="0 0 40 41" id="dribble" xmlns="http://www.w3.org/2000/svg"><path d="M30.664 7.902l.305-.384-.378-.313A16.673 16.673 0 0019.92 3.36a16.9 16.9 0 00-4.097.525l-.727.181.447.602c1.39 1.87 3.388 4.696 5.78 9.122l.207.382.408-.152c4.527-1.68 7.24-4.252 8.725-6.118zm-17.3-2.758l-.246-.323-.366.173c-4.496 2.121-7.903 6.172-9.247 11.119l-.167.61.633.02c2.476.079 8.394-.038 14.952-1.795l.619-.165-.311-.56c-2.544-4.584-4.683-7.518-5.868-9.079zm19.453 4.26l-.388-.462-.381.466c-1.656 2.021-4.532 4.647-9.084 6.428l-.506.198.24.488a72.893 72.893 0 012.8 6.427l.144.379.4-.061a38.402 38.402 0 018.637-.323c.56.046.92.099 1.34.16l.275.039.512.072.055-.514a17.62 17.62 0 00-4.044-13.298zM20.67 17.03l-.185-.37-.399.113c-7.713 2.19-14.508 2.124-16.624 2.039l-.482-.02-.037.48-.002.035c-.037.476-.074.965-.074 1.485 0 5.234 2.264 9.906 5.835 13.102l.373.334.333-.373a49.75 49.75 0 013.556-3.608l.002-.001c2.746-2.532 6.28-5.21 10.128-6.38l.517-.157-.196-.503a74.456 74.456 0 00-2.745-6.176zm9.49 7.897h-.006a38.168 38.168 0 00-3.182.292l-.595.08.186.57c.924 2.844 1.688 5.857 2.181 8.99l.125.79.655-.457a17.321 17.321 0 006.719-9.386l.165-.57-.59-.066c-1.46-.165-3.31-.331-5.658-.243zm-5.656 1.185l-.154-.453-.46.133c-3.381.984-6.918 3.535-9.598 5.996-1.296 1.178-2.341 2.297-3.181 3.213l-.413.451.524.315c2.545 1.535 5.501 2.438 8.69 2.438 2.394 0 4.652-.506 6.714-1.397l.348-.15-.051-.376c-.484-3.574-1.339-6.98-2.42-10.17zM.868 20.782c0-10.753 8.567-19.499 19.054-19.499 10.487 0 19.054 8.746 19.054 19.5 0 10.752-8.567 19.498-19.054 19.498C9.435 40.281.868 31.535.868 20.782z" fill="#070707" stroke="#070707"/></svg><svg fill="none" viewBox="0 0 59 90" id="figma" xmlns="http://www.w3.org/2000/svg"><path d="M15.051 89.661c8.039 0 14.559-6.64 14.559-14.826V60.01H15.051C7.013 60.01.493 66.65.493 74.835c0 8.186 6.52 14.826 14.558 14.826z" fill="#0ACF83"/><path d="M.493 45.166c0-8.186 6.52-14.826 14.558-14.826H29.61v29.67H15.051C7.013 59.99.493 53.351.493 45.165z" fill="#A259FF"/><path d="M.493 15.496C.493 7.31 7.013.67 15.05.67H29.61v29.67H15.051C7.013 30.34.493 23.681.493 15.496z" fill="#F24E1E"/><path d="M29.628.67h14.559c8.038 0 14.558 6.64 14.558 14.826S52.225 30.32 44.187 30.32h-14.56V.67z" fill="#FF7262"/><path d="M58.745 45.166c0 8.186-6.52 14.825-14.558 14.825-8.039 0-14.56-6.64-14.56-14.825 0-8.186 6.521-14.826 14.56-14.826 8.038 0 14.558 6.64 14.558 14.826z" fill="#1ABCFE"/></svg><svg fill="none" viewBox="0 0 40 41" id="insta" xmlns="http://www.w3.org/2000/svg"><path d="M12.166 1.293h.5v-.01h15.905c5.965 0 10.847 4.985 10.847 11.112V29.17c0 6.128-4.883 11.112-10.838 11.112H12.166C6.2 40.281 1.31 35.305 1.31 29.188V12.405C1.31 6.278 6.2 1.293 12.166 1.293zm-8.848 11.12v16.785c0 4.986 3.928 9.017 8.848 9.017H28.58c4.904 0 8.83-4.032 8.83-9.036V12.405c0-5.004-3.927-9.036-8.839-9.036H12.166c-4.913 0-8.838 4.032-8.848 9.045zm28.084-3.93c0-.59.454-1.038 1.005-1.038.55 0 1.004.448 1.004 1.038 0 .59-.454 1.038-1.004 1.038s-1.004-.448-1.004-1.038zM10.345 20.787c0-5.656 4.525-10.266 10.03-10.266 5.504 0 10.029 4.61 10.029 10.266s-4.525 10.266-10.03 10.266c-5.504 0-10.029-4.61-10.029-10.266zm18.05 0c0-4.534-3.56-8.19-8.02-8.19-4.461 0-8.021 3.656-8.021 8.19 0 4.534 3.56 8.19 8.02 8.19 4.461 0 8.021-3.656 8.021-8.19z" fill="#070707" stroke="#070707"/></svg><svg viewBox="0 0 41 41" id="linkedin" xmlns="http://www.w3.org/2000/svg"><path d="M34.575.643H6.176C2.932.643.292 3.275.292 6.51v28.323c0 3.235 2.64 5.868 5.884 5.868h28.399c3.244 0 5.884-2.633 5.884-5.868V6.51c0-3.236-2.64-5.868-5.884-5.868zm3.53 34.19a3.53 3.53 0 01-3.53 3.521H6.176a3.53 3.53 0 01-3.53-3.52V6.51a3.53 3.53 0 013.53-3.521h28.399a3.53 3.53 0 013.53 3.52v28.324z" fill="#070707" stroke="#070707" stroke-width=".5"/><mask id="ja" fill="#fff"><path d="M31.42 29.679h-4.311v-.199-7.003c0-.497-.037-.987-.162-1.472-.515-1.999-2.741-1.882-3.627-.935-.445.476-.735 1.014-.748 1.68-.002.157-.012.316-.012.474V29.678h-4.304V16.313h4.302v1.793l.034.015c.03-.042.062-.083.093-.125.43-.599.926-1.13 1.585-1.489.735-.401 1.529-.536 2.355-.512.895.026 1.745.228 2.51.71.98.617 1.579 1.52 1.929 2.603.273.845.362 1.716.363 2.598.002 2.539.001 5.078 0 7.616 0 .05-.004.1-.007.157z"/></mask><path d="M31.42 29.679h-4.311v-.199-7.003c0-.497-.037-.987-.162-1.472-.515-1.999-2.741-1.882-3.627-.935-.445.476-.735 1.014-.748 1.68-.002.157-.012.316-.012.474V29.678h-4.304V16.313h4.302v1.793l.034.015c.03-.042.062-.083.093-.125.43-.599.926-1.13 1.585-1.489.735-.401 1.529-.536 2.355-.512.895.026 1.745.228 2.51.71.98.617 1.579 1.52 1.929 2.603.273.845.362 1.716.363 2.598.002 2.539.001 5.078 0 7.616 0 .05-.004.1-.007.157z" fill="#070707"/><path d="M31.42 29.679v.03h.029l.002-.028-.031-.002zm-4.311 0h-.031v.03h.03v-.03zm0-7.202h.03-.03zm-.162-1.472l.03-.008-.03.008zm-3.627-.935l.023.021-.023-.02zm-.748 1.68l-.03-.001h.03zm-.012.474h.031-.03zm0 7.454v.03h.03v-.03h-.03zm-4.304 0h-.03v.03h.03v-.03zm0-13.365v-.03h-.03v.03h.03zm4.302 0h.03v-.03h-.03v.03zm0 1.793h-.031v.02l.019.008.012-.028zm.034.015l-.012.028.022.01.015-.02-.025-.018zm.093-.125l.024.018-.024-.018zm1.585-1.489l.014.027-.014-.027zm2.355-.512l.001-.03v.03zm2.51.71l.016-.027-.016.026zm1.929 2.603l-.03.01.03-.01zm.363 2.598h.03-.03zm0 7.616h-.03.03zm-.007.126H27.108v.062H31.42v-.062zm-4.28.031V29.48h-.062V29.68h.061zm0-.199v-7.003h-.062v7.003h.061zm0-7.003c0-.498-.038-.992-.163-1.48l-.06.016c.124.48.161.969.161 1.464h.061zm-.163-1.48c-.261-1.012-.957-1.49-1.7-1.594-.74-.104-1.529.165-1.979.647l.045.041c.435-.465 1.203-.729 1.925-.628.72.101 1.395.563 1.65 1.55l.059-.016zm-3.679-.947c-.448.48-.744 1.024-.756 1.699h.061c.012-.654.298-1.185.74-1.658l-.045-.041zm-.756 1.699c-.003.156-.012.317-.012.475h.061c0-.158.01-.314.012-.474l-.061-.001zm-.012.475v7.248h.06l.001-7.248h-.061zm0 7.248V29.678h.06V29.472h-.06zm.03.175H18.256v.061H22.56v-.06zm-4.273.03V16.314h-.062V29.678h.062zm-.031-13.333H22.558v-.061H18.256v.06zm4.271-.03V18.105h.061V16.313h-.061zm.019 1.82l.034.015.024-.056-.034-.015-.024.056zm.07.005c.03-.04.063-.083.093-.125l-.05-.036-.092.125.05.036zm.093-.125c.43-.597.922-1.124 1.575-1.48l-.03-.053c-.663.362-1.162.897-1.594 1.498l.05.035zm1.575-1.48c.73-.398 1.518-.532 2.34-.508l.002-.06c-.83-.025-1.63.11-2.371.515l.03.053zm2.34-.508c.891.026 1.735.227 2.495.705l.032-.052c-.77-.485-1.626-.688-2.525-.714l-.001.061zm2.495.705c.973.612 1.567 1.51 1.916 2.587l.058-.018c-.352-1.09-.953-2-1.942-2.621l-.032.052zm1.916 2.587c.271.84.36 1.709.361 2.589h.062c-.001-.884-.09-1.759-.365-2.607l-.058.018zm.361 2.589c.003 2.538.001 5.077.001 7.616h.061c0-2.539.002-5.078 0-7.616h-.062zm.001 7.616c0 .049-.004.096-.008.155l.062.003c.003-.056.007-.107.007-.158h-.06z" fill="#070707" mask="url(#ja)"/><path d="M15.611 29.671h-4.25V16.324h4.25v13.347zM13.669 9.672c.67-.001 1.241.236 1.646.643.404.406.642.982.645 1.659.002.67-.238 1.24-.648 1.644s-.991.64-1.675.64c-1.332.002-2.282-.95-2.284-2.29-.002-1.34.96-2.295 2.316-2.296z" fill="#070707" stroke="#070707" stroke-width=".031"/></svg></svg>